<?xml version="1.0" encoding="utf-8"?>
<!-- Generator: Adobe Illustrator 25.0.0, SVG Export Plug-In . SVG Version: 6.00 Build 0)  -->
<svg version="1.1" id="Layer_1" xmlns="http://www.w3.org/2000/svg" xmlns:xlink="http://www.w3.org/1999/xlink" x="0px" y="0px"
	 viewBox="0 0 612 612.72" style="enable-background:new 0 0 612 612.72;" xml:space="preserve">
<style type="text/css">
	.st0{fill:url(#SVGID_1_);}
	.st1{fill:url(#SVGID_2_);}
	.st2{fill:url(#SVGID_3_);}
	.st3{fill:url(#SVGID_4_);}
</style>
<g>
	<g>
		<linearGradient id="SVGID_1_" gradientUnits="userSpaceOnUse" x1="74.6501" y1="358.146" x2="74.6501" y2="226.3542">
			<stop  offset="0" style="stop-color:#FFF23A"/>
			<stop  offset="0.0401" style="stop-color:#FEE62D"/>
			<stop  offset="0.1171" style="stop-color:#FED41A"/>
			<stop  offset="0.1964" style="stop-color:#FDC90F"/>
			<stop  offset="0.2809" style="stop-color:#FDC60B"/>
			<stop  offset="0.6685" style="stop-color:#F28F3F"/>
			<stop  offset="0.8876" style="stop-color:#ED693C"/>
			<stop  offset="1" style="stop-color:#E83E39"/>
		</linearGradient>
		<path class="st0" d="M144.63,201.82c-0.4,3.22-1.54,8.85-3.42,16.89c-7.78,6.44-14.61,9.65-20.51,9.65c-1.61,0-3.22-0.2-4.83-0.6
			c-5.9,0.8-14.98,1.34-27.25,1.61c-12.27,0.27-21.55,0.87-27.85,1.81c-0.67,5.77-1.01,11.4-1.01,16.89c0,5.36,0.27,10.59,0.8,15.69
			c5.23,0,12.97-0.87,23.23-2.61c10.26-1.74,18-2.61,23.23-2.61c3.75,0,7.31,0.34,10.66,1.01c3.35,2.15,5.63,5.23,6.84,9.25
			c0.4,1.21,1.07,5.1,2.01,11.66c-4.02,7.24-9.85,10.86-17.49,10.86c-1.61,0-4.06-0.13-7.34-0.4c-3.29-0.27-5.73-0.4-7.34-0.4
			c-7.24,0-17.9,1.61-31.97,4.83c-0.14,1.48-0.2,2.95-0.2,4.42c0,4.29,0.87,8.58,2.61,12.87c-0.94,2.01-1.41,3.75-1.41,5.23
			c0,1.07,0.3,2.61,0.9,4.62c0.6,2.01,0.91,3.55,0.91,4.62c0,0.67-0.07,1.54-0.2,2.61c-0.14,1.07-0.2,1.95-0.2,2.61
			c0,2.15,0.97,5.13,2.92,8.95c1.94,3.82,2.92,6.87,2.92,9.15c0,6.03-3.62,10.52-10.86,13.47c-0.67,0.4-6.74,2.08-18.22,5.03
			c-4.14-2.68-8.28-5.36-12.41-8.04c-4.81-3.09-8.28-6.57-10.41-10.46c0-1.21,0-2.48,0-3.82c0-5.5,1.33-12.73,4-21.72
			c2.67-8.45,3.81-15.75,3.41-21.92l0.8-8.85c-2.94-2.14-5.94-4.29-9.01-6.43c-3.07-2.68-4.61-5.83-4.61-9.45
			c0-4.42,1.17-8.41,3.52-11.96c2.34-3.55,5.53-5.33,9.55-5.33c0.94,0,1.88,0.07,2.81,0.2c0-1.07,0.13-3.82,0.4-8.24
			c0.13-3.35,0.2-6.03,0.2-8.04l-0.2-3.82l-10.05,1.61c-9.92-4.42-14.88-12.73-14.88-24.94c0-1.47,0.13-2.95,0.4-4.42
			c2.54-4.69,5.63-7.64,9.25-8.85c1.88-0.67,5.96-1.07,12.27-1.21c4.68-0.13,8.41-1.14,11.21-3.02
			c33.28-3.08,61.92-8.51,85.92-16.29C132.56,184.6,139.53,190.56,144.63,201.82z"/>
		<linearGradient id="SVGID_2_" gradientUnits="userSpaceOnUse" x1="225.9673" y1="358.146" x2="225.9673" y2="226.3542">
			<stop  offset="0" style="stop-color:#FFF23A"/>
			<stop  offset="0.0401" style="stop-color:#FEE62D"/>
			<stop  offset="0.1171" style="stop-color:#FED41A"/>
			<stop  offset="0.1964" style="stop-color:#FDC90F"/>
			<stop  offset="0.2809" style="stop-color:#FDC60B"/>
			<stop  offset="0.6685" style="stop-color:#F28F3F"/>
			<stop  offset="0.8876" style="stop-color:#ED693C"/>
			<stop  offset="1" style="stop-color:#E83E39"/>
		</linearGradient>
		<path class="st1" d="M296.25,329.11c0,3.49-0.87,7.04-2.61,10.66c-5.23,3.35-9.65,5.03-13.27,5.03c-4.02,0-9.18-2.54-15.48-7.64
			c-12.07,4.96-20.65,8.31-25.74,10.05c-9.65,3.62-18.43,6.3-26.34,8.04c-2.95,2.41-7.24,3.62-12.87,3.62
			c-7.91,0-12.47,0.07-13.67,0.2c-2.01-4.42-4.02-7.64-6.03-9.65c-1.48-1.34-4.62-3.49-9.45-6.43
			c-10.05-6.3-15.08-13.27-15.08-20.91c0-4.69,1.81-10.99,5.43-18.9c-0.13-2.82,0.03-6.97,0.5-12.47c0.47-5.5,0.7-9.58,0.7-12.27
			c0-3.35-0.2-6.44-0.6-9.25l1.81-3.02c-1.61-4.15-2.41-6.9-2.41-8.24c0-1.21,0.27-2.41,0.8-3.62c-0.27-1.88-0.4-3.75-0.4-5.63
			c0-2.82,0.3-7,0.9-12.57c0.6-5.56,0.9-9.75,0.9-12.57c0-1.07-0.1-2.65-0.3-4.73c-0.2-2.08-0.3-3.58-0.3-4.52
			c0-2.82,1.94-6.44,5.83-10.86c2.95-3.08,5.9-6.23,8.85-9.45c12.07,4.83,18.1,11.26,18.1,19.3c0,1.61-0.27,4.69-0.8,9.25
			c-0.54,3.75-0.67,6.77-0.4,9.05c-4.02,15.28-6.03,28.96-6.03,41.02c0,11.53,1.94,21.11,5.83,28.76c0.94,2.01,2.14,5.16,3.62,9.45
			c2.68,0.54,6.64,1.61,11.86,3.22c6.84-1.47,17.09-3.95,30.77-7.44c1.74-3.08,3.48-6.16,5.23-9.25c2.28-3.48,4.69-6.1,7.24-7.84
			c1.07-4.02,1.61-8.38,1.61-13.07c0-2.41-0.87-11.06-2.61-25.94c-0.27-4.96-0.87-12.33-1.81-22.12c-0.27-2.14-1.21-6.03-2.82-11.66
			c-1.21-4.96-1.81-8.91-1.81-11.86c0-3.62,3.08-7.31,9.25-11.06c10.46,0,19.91,3.29,28.35,9.85c1.74,4.02,2.61,7.91,2.61,11.66
			c0,1.74-0.2,3.96-0.6,6.64c-2.55,15.96-3.82,26.74-3.82,32.38c0,2.82,0.23,7.07,0.7,12.77c0.47,5.7,0.7,9.95,0.7,12.77
			c0,1.21,0,3.02,0,5.43c-0.13,2.28-0.2,4.02-0.2,5.23c0,5.36,0.53,10.12,1.61,14.28C292.16,314.03,296.25,322.14,296.25,329.11z"/>
		<linearGradient id="SVGID_3_" gradientUnits="userSpaceOnUse" x1="375.2734" y1="358.146" x2="375.2734" y2="226.3542">
			<stop  offset="0" style="stop-color:#FFF23A"/>
			<stop  offset="0.0401" style="stop-color:#FEE62D"/>
			<stop  offset="0.1171" style="stop-color:#FED41A"/>
			<stop  offset="0.1964" style="stop-color:#FDC90F"/>
			<stop  offset="0.2809" style="stop-color:#FDC60B"/>
			<stop  offset="0.6685" style="stop-color:#F28F3F"/>
			<stop  offset="0.8876" style="stop-color:#ED693C"/>
			<stop  offset="1" style="stop-color:#E83E39"/>
		</linearGradient>
		<path class="st2" d="M448.87,338.36c0,3.49-0.67,8.38-2.01,14.68c-7.91,3.75-13.07,5.63-15.48,5.63c-2.55,0-4.9-0.74-7.04-2.21
			c-3.89,0.13-7.84-1.28-11.86-4.22c-3.35-2.95-6.64-5.83-9.85-8.65c-4.16-3.75-6.91-7.37-8.25-10.86
			c-1.88-5.23-3.55-8.91-5.03-11.06c-3.62-4.83-8.78-12.4-15.48-22.72c-2.82-4.96-5.03-8.51-6.64-10.66
			c-3.49-4.69-6.64-7.17-9.45-7.44c-2.95,2.55-4.9,5.97-5.83,10.26c-0.54,2.41-0.87,6.44-1,12.07c-0.54,17.43-3.22,31.64-8.04,42.63
			c-11.93,4.42-19.78,6.64-23.53,6.64c-3.89,0-7.71-0.87-11.46-2.61c-4.16-5.5-6.23-9.32-6.23-11.46c0-1.74,0.6-3.35,1.81-4.83
			c2.41-11.93,6.97-31.77,13.67-59.52c1.34-5.09,2.68-10.12,4.02-15.08c1.61-6.03,2.41-11.19,2.41-15.48
			c0-3.89,1.61-9.45,4.83-16.69c7.77-5.76,13.47-8.65,17.09-8.65c6.7,0,14.95,9.72,24.73,29.16c4.56,8.98,10.32,16.49,17.29,22.52
			c3.48,6.97,10.86,16.02,22.12,27.15l1.81-1.61c-2.41-16.89-5.83-42.09-10.26-75.61c-2.55-1.47-3.82-4.09-3.82-7.84
			c0-3.75,1.21-7.57,3.62-11.46c2.82-4.42,6.03-6.64,9.65-6.64c4.42,0,9.52,1.58,15.28,4.73c5.76,3.15,9.72,6.6,11.86,10.36
			c1.88,3.22,2.75,7.84,2.61,13.88c-0.27,7.11,0,11.86,0.8,14.28c-0.94,2.01-1.41,3.96-1.41,5.83c0,0.94,0.17,2.31,0.5,4.12
			c0.33,1.81,0.5,3.19,0.5,4.12c0,1.61-0.34,3.22-1.01,4.83c0.13,1.21,0.4,12,0.8,32.37c0.27,13.14,1.71,23.73,4.32,31.77
			C447.56,328.11,448.87,334.21,448.87,338.36z"/>
		<linearGradient id="SVGID_4_" gradientUnits="userSpaceOnUse" x1="535.0376" y1="358.146" x2="535.0376" y2="226.3542">
			<stop  offset="0" style="stop-color:#FFF23A"/>
			<stop  offset="0.0401" style="stop-color:#FEE62D"/>
			<stop  offset="0.1171" style="stop-color:#FED41A"/>
			<stop  offset="0.1964" style="stop-color:#FDC90F"/>
			<stop  offset="0.2809" style="stop-color:#FDC60B"/>
			<stop  offset="0.6685" style="stop-color:#F28F3F"/>
			<stop  offset="0.8876" style="stop-color:#ED693C"/>
			<stop  offset="1" style="stop-color:#E83E39"/>
		</linearGradient>
		<path class="st3" d="M607.33,322.48c-6.17,6.97-10.05,11.13-11.66,12.47c-4.69,3.75-10.05,5.63-16.09,5.63
			c-6.17,0-11.13-1.27-14.88-3.82c-4.96-3.35-8.78-5.36-11.46-6.03c-1.07-0.4-4.02-0.87-8.85-1.41
			c-12.07-1.47-25.07-6.03-39.01-13.67c-1.08,4.16-1.61,7.37-1.61,9.65c0,3.09,0.8,6.37,2.41,9.85c-1.61,2.41-2.41,4.56-2.41,6.43
			c0,1.21,0.63,3.08,1.91,5.63c1.27,2.54,1.91,4.83,1.91,6.84c0,3.48-1.51,6.26-4.52,8.34c-3.02,2.08-6.33,3.12-9.95,3.12
			c-6.84,0-11.53-2.15-14.08-6.43c-1.74-3.09-2.61-8.25-2.61-15.48c0-4.83,0.07-11.33,0.2-19.51c0.27-9.38,0.4-15.82,0.4-19.3
			c-9.52-3.62-14.28-9.45-14.28-17.49c0-7.37,4.29-12.53,12.87-15.48v-19.1c0-1.07,0.1-2.58,0.3-4.52c0.2-1.94,0.3-3.38,0.3-4.32
			c0-9.38-1.61-16.09-4.83-20.11c-1.07-2.95-1.61-5.63-1.61-8.04c0-4.83,1.94-8.65,5.83-11.46c7.24-1.34,12.47-2.01,15.69-2.01
			c8.85,0,15.68,3.62,20.51,10.86c0.27,9.65,0,24.13-0.8,43.44c6.3-6.16,12.53-14.08,18.7-23.73c2.14-3.35,7.31-12.06,15.48-26.14
			c-0.14-0.67-0.2-1.41-0.2-2.21c0-2.01,0.6-4.42,1.81-7.24c1.74-4.15,2.68-6.5,2.82-7.04c6.57-2.14,10.19-3.22,10.86-3.22
			c2.82,0,7.84,1.61,15.08,4.83c4.15,2.01,7.17,4.49,9.05,7.44c0.8,1.34,2.21,5.03,4.22,11.06c-5.5,8.72-11.86,16.09-19.1,22.12
			c-10.46,8.72-23.73,25.14-39.82,49.27c7.51,2.28,13.81,4.49,18.9,6.64c2.14,1.21,5.5,2.75,10.05,4.62
			c9.38,2.41,18.7,4.83,27.95,7.24c13.4,4.02,20.11,8.92,20.11,14.68c0,0.54-0.07,1.28-0.2,2.21c-0.14,0.94-0.2,1.61-0.2,2.01
			C606.52,320,606.79,321.14,607.33,322.48z"/>
	</g>
	<g>
		<path d="M104.28,416.92h0.11l4.16-27.96h8.61v39.38h-5.85V400.1h-0.11l-4.16,28.24h-5.85l-4.5-27.85h-0.11v27.85h-5.4v-39.38h8.61
			L104.28,416.92z"/>
		<path d="M178.71,428.34h-6.25l-1.07-7.14h-7.59l-1.07,7.14h-5.68l6.3-39.38h9.06L178.71,428.34z M164.59,415.85h5.96l-2.93-19.92
			h-0.11L164.59,415.85z"/>
		<path d="M227.83,406.4h8.66v12.49c0,6.3-3.15,9.9-9.23,9.9c-6.08,0-9.23-3.6-9.23-9.9v-20.48c0-6.3,3.15-9.9,9.23-9.9
			c6.08,0,9.23,3.6,9.23,9.9v3.83h-5.85v-4.22c0-2.81-1.24-3.88-3.21-3.88c-1.97,0-3.21,1.07-3.21,3.88v21.27
			c0,2.81,1.24,3.83,3.21,3.83c1.97,0,3.21-1.01,3.21-3.83v-7.26h-2.81V406.4z"/>
		<path d="M297.48,428.34h-6.24l-1.07-7.14h-7.59l-1.07,7.14h-5.68l6.3-39.38h9.06L297.48,428.34z M283.36,415.85h5.96l-2.93-19.92
			h-0.11L283.36,415.85z"/>
		<path d="M354.52,388.96v5.51l-11.76,28.24h11.76v5.63h-18.12v-5.51l11.76-28.24h-11.2v-5.63H354.52z"/>
		<path d="M395.2,388.96h6.19v39.38h-6.19V388.96z"/>
		<path d="M448.53,399.82h-0.11v28.52h-5.57v-39.38h7.76l6.24,23.57h0.11v-23.57h5.51v39.38h-6.36L448.53,399.82z"/>
		<path d="M510.14,405.56h8.5v5.63h-8.5v11.53h10.69v5.63h-16.88v-39.38h16.88v5.63h-10.69V405.56z"/>
	</g>
</g>
</svg>
