<svg id="Crafticons_-_Simple_Set" data-name="Crafticons - Simple Set" xmlns="http://www.w3.org/2000/svg" viewBox="0 0 200 200"><defs><style>.cls-1{fill:#dcdfe1;}.cls-2{fill:#555e65;}.cls-3{fill:#fff;}.cls-4{fill:#fabd00;}.cls-5{opacity:0.5;}</style></defs><ellipse class="cls-1" cx="100" cy="170.59" rx="12.24" ry="9.79"/><path class="cls-2" d="M100,182.19c-7.74,0-14-5.21-14-11.6s6.3-11.6,14-11.6,14,5.2,14,11.6S107.75,182.19,100,182.19Zm0-19.59c-5.75,0-10.43,3.59-10.43,8s4.68,8,10.43,8,10.43-3.58,10.43-8S105.75,162.6,100,162.6Z"/><ellipse class="cls-1" cx="100" cy="163.25" rx="18.36" ry="9.79"/><path class="cls-2" d="M100,174.84c-11.31,0-20.16-5.09-20.16-11.59s8.85-11.6,20.16-11.6,20.17,5.09,20.17,11.6S111.31,174.84,100,174.84Zm0-19.58c-9.75,0-16.55,4.21-16.55,8s6.8,8,16.55,8,16.55-4.21,16.55-8S109.75,155.26,100,155.26Z"/><ellipse class="cls-1" cx="100" cy="155.9" rx="18.36" ry="9.79"/><path class="cls-2" d="M100,167.5c-11.31,0-20.16-5.09-20.16-11.6s8.85-11.59,20.16-11.59,20.17,5.09,20.17,11.59S111.31,167.5,100,167.5Zm0-19.58c-9.75,0-16.55,4.21-16.55,8s6.8,8,16.55,8,16.55-4.2,16.55-8S109.75,147.92,100,147.92Z"/><ellipse class="cls-1" cx="100" cy="148.56" rx="18.36" ry="9.79"/><path class="cls-2" d="M100,160.16c-11.31,0-20.16-5.1-20.16-11.6S88.69,137,100,137s20.17,5.09,20.17,11.6S111.31,160.16,100,160.16Zm0-19.58c-9.75,0-16.55,4.2-16.55,8s6.8,8,16.55,8,16.55-4.21,16.55-8S109.75,140.58,100,140.58Z"/><path class="cls-3" d="M149,66.57a49,49,0,1,0-84.31,34.27A36.21,36.21,0,0,1,74.7,126.49v6.16C74.7,142.79,86.48,151,100,151s25.31-8.22,25.31-18.36V126.5c0-9.56,3.27-18.78,10-25.59A48.43,48.43,0,0,0,149,66.57Z"/><path class="cls-4" d="M102.71,149.78c-11.47,0-20.78-6.59-20.78-14.68v-6.16a40.21,40.21,0,0,0-11.66-28.23A45.21,45.21,0,0,1,99.18,23.86c1.09-.08,2.18-.12,3.29-.12A45.33,45.33,0,0,1,147.74,69a44.86,44.86,0,0,1-12.91,31.76,39.75,39.75,0,0,0-11.33,28.16v6.16C123.5,143.19,114.18,149.78,102.71,149.78Z"/><g class="cls-5"><path class="cls-2" d="M117.72,138.77H114.1c0-4.33-6.46-8-14.1-8s-14.1,3.66-14.1,8H82.29c0-6.51,7.78-11.6,17.71-11.6S117.72,132.26,117.72,138.77Z"/></g><path d="M113.46,91.77h-9.84V81.25a10.14,10.14,0,0,1,9.84-10.37h.27a10.45,10.45,0,0,1-.27,20.89Zm-6.23-3.61h6.23a6.83,6.83,0,0,0,.14-13.66,6.56,6.56,0,0,0-6.37,6.75Z"/><path d="M96.39,91.77H86.54a10.45,10.45,0,0,1-.26-20.89h.26a10.15,10.15,0,0,1,9.85,10.37Zm-10-17.27a6.83,6.83,0,0,0,.13,13.66h6.23V81.25A6.56,6.56,0,0,0,86.41,74.5Z"/><polygon points="107.23 138.76 103.62 138.76 103.62 91.77 96.39 91.77 96.39 138.76 92.77 138.76 92.77 88.16 107.23 88.16 107.23 138.76"/><path d="M100,152.81c-14.69,0-27.11-9.23-27.11-20.16v-6.16a34.46,34.46,0,0,0-9.54-24.39c-9.91-10.1-14.89-23.81-14-38.59a50.76,50.76,0,0,1,101.43,3.06,50.25,50.25,0,0,1-14.19,35.61c-6.1,6.19-9.46,14.83-9.46,24.32v6.15C127.11,143.58,114.7,152.81,100,152.81Zm0-133.38c-1.15,0-2.31,0-3.47.12A47.16,47.16,0,0,0,52.94,63.72c-.81,13.76,3.81,26.49,13,35.85a38,38,0,0,1,10.58,26.92v6.16c0,9,10.76,16.55,23.49,16.55s23.5-7.58,23.5-16.55V126.5c0-10.45,3.73-20,10.5-26.86a46.63,46.63,0,0,0,13.14-33.07,47.28,47.28,0,0,0-15-34.49A46.64,46.64,0,0,0,100,19.43Z"/></svg>