<?xml version="1.0" encoding="utf-8"?>
<!-- Generator: Adobe Illustrator 25.2.0, SVG Export Plug-In . SVG Version: 6.00 Build 0)  -->
<svg version="1.1" id="Layer_1" xmlns="http://www.w3.org/2000/svg" xmlns:xlink="http://www.w3.org/1999/xlink" x="0px" y="0px"
	 viewBox="0 0 590 120" style="enable-background:new 0 0 590 120;" xml:space="preserve">
<style type="text/css">
	.st0{fill:#333333;}
</style>
<g>
	<g>
		<path class="st0" d="M236.6,87.7h-11.5l3.1-17.4h-20.3l5.5-11.4h16.8l2.3-13.4c0.5-1.9-0.7-3.7-2.5-4.2c-0.3-0.1-0.7-0.1-1-0.1
			h-15.9c-2.5,0.1-4.6,1.9-5.1,4.3l-7.4,42.2h-11.3l7.5-42.5c1.8-8.7,9.3-15.1,18.2-15.5h16.3c8.5,0,14.2,6.9,12.7,15.5L236.6,87.7z
			"/>
		<path class="st0" d="M247,41.3L247,41.3c-0.1-2.9-1-5.6-2.6-8c-0.9-1.4-2.1-2.5-3.4-3.5h-3.3c1.8,0.6,3.4,1.7,4.6,3.1
			c0.4,0.4,0.7,0.9,0.9,1.2c0.8,1.3,1.4,2.7,1.8,4.2c0,0.1,0,0.2,0,0.3c0,0.4,0.2,0.8,0.2,1.2c0,0.1,0,0.3,0,0.4
			c0.3,1.6,0.3,3.3,0,5l-7.3,42.6h1.6l7.3-42.4C247,44,247,42.6,247,41.3z"/>
		<path class="st0" d="M218.6,42.5h-5.9c-1.8,0.2-3.2,1.6-3.3,3.4L203.8,78l-1.7,9.7h1.6l1.7-9.7l5.4-31.8c0.4-2,1.8-2.1,1.8-2.1
			h14.8l0.7-1.6L218.6,42.5z"/>
		<path class="st0" d="M516.4,87.7H505l3-17.4h-20.2l5.5-11.4h16.8l2.3-13.4c0.5-1.8-0.7-3.7-2.5-4.2c-0.3-0.1-0.7-0.1-1-0.1H493
			c-2.5,0.1-4.6,1.9-5.1,4.3l-7.4,42.2h-11.3l7.5-42.5c1.8-8.7,9.3-15.1,18.2-15.5h16.3c8.5,0,14.2,6.9,12.7,15.5L516.4,87.7z"/>
		<path class="st0" d="M526.9,41.3L526.9,41.3c-0.1-2.9-1-5.6-2.6-8c-0.9-1.4-2.1-2.5-3.4-3.5h-3.4c1.8,0.6,3.4,1.7,4.6,3.1
			c0.4,0.4,0.7,0.9,0.9,1.2c0.9,1.3,1.5,2.7,1.8,4.2c0,0.1,0,0.2,0,0.3c0.1,0.4,0.2,0.8,0.2,1.2c0,0.1,0,0.3,0,0.4
			c0.3,1.6,0.3,3.3,0,5l-7.3,42.6h1.6l7.3-42.4C526.9,44,527,42.6,526.9,41.3z"/>
		<path class="st0" d="M498.3,42.5h-5.9c-1.8,0.2-3.2,1.6-3.3,3.4L483.6,78l-1.7,9.7h1.6l1.7-9.7l5.4-31.8c0.4-2,1.8-2.1,1.8-2.1
			h14.8l0.7-1.6L498.3,42.5z"/>
		<polygon class="st0" points="312.8,29.7 302.5,87.7 291.2,87.7 301.4,29.7 		"/>
		<polygon class="st0" points="324.7,58.8 341.6,87.7 327.3,87.7 310.5,58.8 337.5,29.7 351.8,29.7 		"/>
		<polygon class="st0" points="356,29.7 353.9,29.7 326.6,59 343.8,87.7 345.6,87.7 328.6,59.2 		"/>
		<polygon class="st0" points="314.2,29.7 304,87.7 305.5,87.7 315.8,29.7 		"/>
		<path class="st0" d="M169.3,87.7l-7-17.4h-10l5.5-11.4H170c2.5,0,4.6-1.8,5.1-4.3l1.6-9.1c0.5-1.8-0.7-3.7-2.5-4.2
			c-0.3-0.1-0.7-0.1-1-0.1H153l-8.2,46.5h-11.3l10.2-58h31.8c8.4,0,14.1,6.8,12.7,15.2v0.3l-1.7,9.6v0.2
			c-1.4,6.2-5.7,11.4-11.6,13.8l7.6,18.7L169.3,87.7z M186.4,55.1L186.4,55.1z M188.1,45.2L188.1,45.2z"/>
		<path class="st0" d="M189.6,55.2c0-0.1,0-0.1,0-0.2l1.7-9.7v-0.1c0.5-4.1-0.6-8.3-3.1-11.6c-1-1.4-2.3-2.6-3.6-3.7h-2.7
			c2,1.2,3.8,2.7,5.2,4.6c2.3,3,3.3,6.8,2.8,10.6V45l-1.7,9.7c0,0.1,0,0.1,0,0.2c-1.3,6.2-5.4,11.5-11.1,14.3
			c-0.2,0.1-0.3,0.2-0.4,0.4c-0.1,0.2-0.1,0.4,0,0.6l7.5,17.4h1.7l-7.5-17.3C184.1,67.2,188.3,61.7,189.6,55.2z"/>
		<path class="st0" d="M164.2,42.3h-9.7c-0.4,0-0.7,0.3-0.8,0.7L149.1,70l-3,17.7h1.6l3-17.7l4.4-26.2H171l0.7-1.6H164.2z"/>
		<path class="st0" d="M560.5,87.7l-7-17.4h-10l5.5-11.4h12.3c2.5-0.1,4.6-1.9,5.1-4.3l1.6-9.1c0.5-1.8-0.7-3.7-2.5-4.2
			c-0.3-0.1-0.7-0.1-1-0.1h-20.2l-8.2,46.5h-11.3l10.2-58h31.8c8.4,0,14.1,6.8,12.7,15.2v0.3l-1.7,9.6v0.2
			c-1.4,6.2-5.7,11.4-11.6,13.8l7.6,18.7L560.5,87.7z M577.6,55.1L577.6,55.1z M579.3,45.2L579.3,45.2z"/>
		<path class="st0" d="M580.7,55.2c0-0.1,0-0.1,0-0.2l1.7-9.7v-0.1c0.5-4.1-0.6-8.3-3.1-11.6c-1.1-1.4-2.3-2.6-3.7-3.7h-2.8
			c2,1.2,3.8,2.7,5.2,4.6c2.3,3,3.3,6.8,2.8,10.6V45l-1.7,9.7c0,0.1,0,0.1,0,0.2c-1.3,6.2-5.4,11.5-11.1,14.3
			c-0.2,0.1-0.3,0.2-0.4,0.4c-0.1,0.2-0.1,0.4,0,0.6l7.5,17.4h1.7l-7.5-17.3C575.2,67.3,579.4,61.7,580.7,55.2z"/>
		<path class="st0" d="M555.3,42.3h-9.7c-0.4,0-0.7,0.3-0.8,0.7L540.2,70l-3,17.7h1.6l3-17.7l4.4-26.2h15.8l0.7-1.6H555.3z"/>
		<path class="st0" d="M391.4,42.2c-2,0.1-3.6,1.5-4.1,3.4l-0.5,3.3c-0.2,0.8,0,1.6,0.5,2.2c0.5,0.6,1.2,0.9,2,0.9h16.1
			c4.1-0.1,8.1,1.7,10.8,4.8c2.7,3.3,3.8,7.7,2.9,11.9l-0.7,3.8c-1.8,9.2-9.7,16-19.1,16.3H367l-1,1.6h33.4
			c10.1-0.4,18.7-7.6,20.7-17.6l0.7-3.7c0.9-4.7-0.3-9.5-3.3-13.2c-3-3.5-7.4-5.4-12-5.3h-16.1c-0.3,0-0.6-0.1-0.8-0.3
			c-0.2-0.3-0.3-0.6-0.2-1l0.5-3.3c0.3-1.2,1.3-2,2.5-2.1H414l0.7-1.6L391.4,42.2z"/>
		<path class="st0" d="M393.3,29.7c-8.9,0.3-16.4,6.7-18.2,15.5l-0.7,3.8c-1.5,8.5,4.2,15.5,12.7,15.5h16.1c1.9-0.1,3.5,1.4,3.6,3.3
			c0,0.3,0,0.7-0.1,1l-0.5,3.3c-0.5,2.4-2.6,4.2-5.1,4.3h-28.1l-5.4,11.3h31.8c8.9-0.3,16.4-6.7,18.1-15.5l0.7-3.8
			C419.7,60,414,53,405.5,53h-16.1c-1.9,0-3.5-1.5-3.5-3.4c0-0.3,0-0.6,0.1-0.9l0.5-3.3c0.5-2.4,2.6-4.2,5.1-4.3h23.9l5.5-11.4
			H393.3z"/>
		<path class="st0" d="M135.6,41.2h-16.6l-8.2,46.5H99.4l7.1-40.9l6.7-5.7H91L93,29.7h44.7L135.6,41.2z"/>
		<path class="st0" d="M120.9,42.3c-0.4,0-0.7,0.3-0.8,0.6l-1,5.3L112,87.6l1.6,0.3l7.2-39.7l0.8-4.3h13.5l0.3-1.6H120.9z"/>
		<path class="st0" d="M471.4,41.2h-16.7l-8.2,46.5h-11.3l7.1-40.9l6.7-5.7h-22.3l2.1-11.4h44.7L471.4,41.2z"/>
		<path class="st0" d="M456.7,42.3c-0.4,0-0.7,0.3-0.8,0.6l-1,5.3l-7.2,39.4l1.6,0.3l7.2-39.7l0.8-4.3h13.5l0.3-1.6H456.7z"/>
		<path class="st0" d="M286.3,76.4l-2,11.3h-24.1c-7,0.2-12.9-5.3-13.1-12.3c0-1.1,0.1-2.1,0.3-3.1l4.8-27
			c1.8-8.7,9.3-15.1,18.2-15.5h24.1l-5.4,11.4h-20.6c-2.5,0.1-4.6,1.9-5.1,4.3l-4.7,26.6c-0.4,1.9,0.8,3.8,2.7,4.2
			c0.3,0.1,0.6,0.1,0.9,0.1H286.3z"/>
		<path class="st0" d="M270,42.7c-2.5-0.2-4.7,1.5-5.3,4l-0.5,2.9l-3.7,20.9c-0.3,1.3,0.1,2.6,1,3.5l0,0l0.5-3c0-0.1,0-0.1,0-0.2
			l0.4-2.1l0,0l3.3-19.1l0.5-2.6c0.4-1.7,2-2.8,3.8-2.7h17.6l0.7-1.6L270,42.7z"/>
	</g>
	<g>
		<path class="st0" d="M41.9,39.3L41.9,39.3l8.5-8.3l1.5,11.6c1.2-0.3,2.4-0.9,3.4-1.7c2.4-2,3.8-4.5,3.3-7.7
			c-0.7-4.6-4.6-7.7-9.3-7.7c-1.4,0-2.8,0.4-4.1,1c-4.7,2.2-6.4,7.7-3.8,12C41.5,38.8,41.7,39.1,41.9,39.3z"/>
		<path class="st0" d="M13.7,59.9c3.7-5.5,8.5-10.3,12.4-15.8c1,0.6,1.8,1.1,2.7,1.6c2.4,1.3,4.9,2.3,7.5,2.7l-4.3-8.6
			c-1.1-0.2-2.2-0.4-3.4-0.6c-2.9-0.4-5.4,0.3-7.3,2.7c-0.4,0.6-0.9,1.1-1.3,1.7c-3.5,4.8-5.1,10.4-6.7,16
			C13.4,59.6,13.3,59.8,13.7,59.9z"/>
		<path class="st0" d="M77.9,38.4c-4.4,4.7-9.6,8.5-14.2,13.1c-0.4-0.3-0.8-0.5-1.1-0.8c-0.7-0.5-1.3-1.1-2-1.5l-7.9,3.7
			c2.8,1.4,5.7,2.3,8.7,3.1c2.5,0.6,4.6-0.1,6.5-1.8c1.1-1,2.1-2,3.1-3.1c3-3.6,4.9-7.9,7-12c0-0.1,0.1-0.3,0.1-0.4L77.9,38.4z"/>
		<polygon class="st0" points="37.4,47.1 37.7,47.8 37.4,48.4 34.3,54.1 33.3,55.8 39.8,54.8 41.7,54.5 42.4,54.4 42.9,54.9 
			45.2,57.4 48.6,61.1 48.8,59.8 50,52.8 50.1,52.1 50.8,51.7 50.8,51.7 58.4,48.2 56.1,47 50.9,44.3 50.3,44 50.2,43.3 50.2,43.1 
			49.1,34.9 43.1,40.8 43.1,40.8 42.6,41.3 41.9,41.2 39.3,40.7 33.7,39.6 37,46.4 		"/>
		<path class="st0" d="M54.5,65.3c-0.5-0.7-1.2-1.4-1.9-2c-0.7-0.6-1.5-1.2-2.3-1.8L49.7,65l-8.1-8.7l-9.5,1.4
			c-0.4,1.1-0.5,2.3-0.2,3.5c-0.4,0.5-0.7,0.9-1.1,1.3c-7.6,10-15.1,20-22.6,30.1c-0.4,0.5-0.7,1.1-0.7,1.8c5.7-4.2,10.8-9,16-13.7
			S34,71.3,38.8,66c2.7,1.4,5.6,2,8.4,3.1c-2.8,3.5-5.4,7-7.8,10.5s-5.1,7-7.9,10.5c0.5,0,0.9-0.1,1.3-0.5c1.7-1.2,3.5-2.4,5.2-3.6
			c4.6-3.2,9.2-6.5,13.1-10.7c1.5-1.6,2.7-3.3,3.7-5.2C55.8,68.5,55.6,66.9,54.5,65.3z"/>
	</g>
</g>
</svg>
