<?xml version="1.0" encoding="utf-8"?>
<!-- Generator: Adobe Illustrator 25.0.0, SVG Export Plug-In . SVG Version: 6.00 Build 0)  -->
<svg version="1.1" id="Layer_1" xmlns="http://www.w3.org/2000/svg" xmlns:xlink="http://www.w3.org/1999/xlink" x="0px" y="0px"
	 viewBox="0 0 30 30" style="enable-background:new 0 0 30 30;" xml:space="preserve">
<g>
	<path d="M10.26,1.88c0.59,0,1.04,0.48,1.04,1.01c0,0.57-0.45,1.01-1.04,1.01c-0.57,0-1.04-0.45-1.04-1.01
		C9.22,2.36,9.7,1.88,10.26,1.88z M10.26,21.48c-0.51,0-0.95-0.42-0.95-0.95V6.34c0-0.51,0.45-0.92,0.95-0.92
		c0.54,0,0.95,0.42,0.95,0.92v14.18C11.22,21.06,10.8,21.48,10.26,21.48z"/>
	<path d="M16.18,1.44v19.09c0,0.54-0.42,0.95-0.95,0.95c-0.54,0-0.95-0.42-0.95-0.95V1.44c0-0.54,0.42-0.95,0.95-0.95
		C15.77,0.48,16.18,0.9,16.18,1.44z"/>
	<path d="M20.2,1.88c0.59,0,1.04,0.48,1.04,1.01c0,0.57-0.45,1.01-1.04,1.01c-0.57,0-1.04-0.45-1.04-1.01
		C19.16,2.36,19.63,1.88,20.2,1.88z M20.2,21.48c-0.51,0-0.95-0.42-0.95-0.95V6.34c0-0.51,0.45-0.92,0.95-0.92
		c0.54,0,0.95,0.42,0.95,0.92v14.18C21.15,21.06,20.73,21.48,20.2,21.48z"/>
	<g>
		<g>
			<path d="M14.73,29.52c-4.7,0-7.97-3.82-7.97-8.52c0-0.33,0.27-0.6,0.6-0.6s0.6,0.27,0.6,0.6c0,4.04,2.74,7.33,6.78,7.33
				s7.33-3.29,7.33-7.33c0-0.33,0.27-0.6,0.6-0.6s0.6,0.27,0.6,0.6C23.25,25.69,19.42,29.52,14.73,29.52z"/>
		</g>
	</g>
</g>
</svg>
