<svg id="Layer_1" data-name="Layer 1" xmlns="http://www.w3.org/2000/svg" xmlns:xlink="http://www.w3.org/1999/xlink" viewBox="0 0 590 120"><defs><style>.cls-1{fill:#fffce2;}.cls-2,.cls-5{fill:none;}.cls-2{stroke:#c9c9c9;stroke-miterlimit:10;}.cls-3,.cls-4{font-size:77px;font-family:Broadway;}.cls-4{letter-spacing:0em;}.cls-6{fill:url(#linear-gradient);}.cls-7{fill:url(#linear-gradient-2);}.cls-8{fill:url(#linear-gradient-3);}.cls-9{fill:url(#linear-gradient-4);}</style><linearGradient id="linear-gradient" x1="295" y1="0.01" x2="295" y2="13.05" gradientUnits="userSpaceOnUse"><stop offset="0" stop-color="#9a1900"/><stop offset="1" stop-color="#3b1900"/></linearGradient><linearGradient id="linear-gradient-2" x1="590" y1="60.01" x2="576.93" y2="60.01" xlink:href="#linear-gradient"/><linearGradient id="linear-gradient-3" x1="0" y1="60.01" x2="13.07" y2="60.01" xlink:href="#linear-gradient"/><linearGradient id="linear-gradient-4" y1="120.01" y2="106.97" xlink:href="#linear-gradient"/></defs><polygon class="cls-1" points="573.96 9.25 21.24 9.25 8.43 9.25 8.43 20.77 8.43 103.74 8.43 115.26 21.24 115.26 573.96 115.26 586.77 115.26 586.77 103.74 586.77 20.77 586.77 9.25 573.96 9.25"/><line class="cls-2" x1="13.07" y1="19.41" x2="576.93" y2="19.4"/><line class="cls-2" x1="13.07" y1="32.94" x2="576.93" y2="32.93"/><line class="cls-2" x1="13.07" y1="46.48" x2="576.93" y2="46.47"/><line class="cls-2" x1="13.07" y1="60.01" x2="576.93" y2="60"/><line class="cls-2" x1="13.07" y1="73.55" x2="576.93" y2="73.54"/><line class="cls-2" x1="13.07" y1="87.08" x2="576.93" y2="87.07"/><line class="cls-2" x1="13.07" y1="100.62" x2="576.93" y2="100.61"/><text class="cls-3" transform="translate(28.22 88.76)">W</text><text class="cls-3" transform="translate(106.24 88.76) scale(0.7)">ILL</text><text class="cls-3" transform="translate(200.62 88.76)"><tspan xml:space="preserve"> I</tspan></text><text class="cls-3" transform="translate(251.6 88.76) scale(0.7)">T</text><text class="cls-3" transform="translate(288.81 88.76)"><tspan xml:space="preserve"> S</tspan></text><text class="cls-4" transform="translate(354.04 88.76) scale(0.7)">TREAM</text><rect class="cls-5" x="13.07" y="13.05" width="563.86" height="93.92"/><polygon class="cls-6" points="576.93 13.05 590 0.01 576.93 0.01 13.07 0.01 0 0.01 13.07 13.05 576.93 13.05"/><polygon class="cls-7" points="576.93 13.05 576.93 106.97 590 120.01 590 106.97 590 13.05 590 0.01 576.93 13.05"/><polygon class="cls-8" points="13.07 13.05 0 0.01 0 13.05 0 106.97 0 120.01 13.07 106.97 13.07 13.05"/><polygon class="cls-9" points="13.07 106.97 0 120.01 13.07 120.01 576.93 120.01 590 120.01 576.93 106.97 13.07 106.97"/></svg>