<svg id="Layer_1" data-name="Layer 1" xmlns="http://www.w3.org/2000/svg" viewBox="0 0 612 612"><defs><style>.cls-1{fill:#d51920;}.cls-2{fill:#ed7c31;}.cls-3{fill:#fd0;}.cls-4{fill:#8dc63f;}.cls-5{fill:#a967aa;}.cls-6{fill:#00aeef;}.cls-7{fill:#e81e25;}</style></defs><path class="cls-1" d="M182.54,121.33a32.87,32.87,0,0,0,2.66,3c28.53,25.62,57,51.33,85.67,76.77,11.26,10,28.71,11.52,41.87,4.31,4.11-2.26,7.48-.44,10.79,1.41,12.55,7,25,14.17,37.5,21.18,11.49,6.44,23.42,12.16,34.49,19.23C417.05,261,435,278.5,446.94,301.36c10.33,19.81,12.8,40.77,8.43,62.9-9.65,48.86-41.81,77.65-85,96.8-28.33,12.57-58.36,14.1-88.77,12.8-15-.63-29.79-1.85-44.19-6.49-36.35-11.73-64.35-33.71-81.69-67.94-10.07-19.88-11.61-40.58.07-60.75,13.8-23.82,38.05-32,61.59-28.94,7.11.93,7.42,2.23,8.92,9.28,1.59,7.42,3.58,15,6.86,21.77,5.64,11.68,16,18.76,27.37,24.36,19.87,9.82,40.88,15.22,63.07,13.19a84.45,84.45,0,0,0,25.85-7c10.1-4.44,12.15-10.6,10-21.43-2-10-6.73-18.71-12.73-26.62a124.32,124.32,0,0,0-55.46-41.49c-12.85-4.94-25.85-5.31-39-.4a20.76,20.76,0,0,1-12.12.24,202,202,0,0,1-59-28.06c-14.44-9.93-22.92-24.55-27.79-41.19-5.61-19.15-9.41-38.67-6.7-58.68,7.25-53.55,35-90.87,87.5-107.54C273.85,33.5,314.25,32,354.35,43.74c30.06,8.83,54.37,26.38,70.9,53.72,15.31,25.32,12.61,60.78-7.95,81.61-14.16,14.33-31.79,22.66-52.74,20.78A113.51,113.51,0,0,1,343.29,196c-10.65-3.08-15.14-10.1-14.8-21.08.08-2.37,0-4.74,0-7.11-.26-8.49-4.25-14.77-11.15-19.61-25.32-17.77-50.54-35.71-75.84-53.51-6.54-4.6-13.21-9-20-13.31-1.32-.83-3.28-.64-4.95-.92.83,1.41,1.33,3.21,2.52,4.16Q243.43,104,268,123.11c5.82,4.58,11.69,9.08,17.46,13.73,2.07,1.67,4.35,3.56,2,6.64-2.23,2.91-4.81,3.61-8,1.31q-28.28-20.4-56.57-40.77c-4.2-3-8.17-6.38-12.43-9.33-1.19-.82-3-.7-4.57-1,.66,1.42.94,3.29,2,4.19,14.38,11.9,28.89,23.65,43.33,35.46q9.63,7.88,19.14,15.89c1.36,1.14,2.55,2.47,3.79,3.74,1.86,1.89,3,4.41.69,6.13a8.42,8.42,0,0,1-6.68,1.22c-2.69-.9-4.92-3.19-7.3-5l-63.09-46.94a10.51,10.51,0,0,0-2.18-1.51,2.14,2.14,0,0,0-1.89.18,2,2,0,0,0-.11,1.93,15.22,15.22,0,0,0,2.56,2.44q31.59,27.33,63.19,54.63c.23.19.46.37.68.57,2.59,2.28,5.67,4.51,2.7,8.44-2,2.67-5.52,2.35-9.46-.73q-17-13.28-33.9-26.62-16.08-12.62-32.16-25.23c-1.11-.86-2.32-1.6-3.48-2.4Z"/><path class="cls-2" d="M107.27,519.83l-8,4.71q-2.23-3.87-4.25-5a11.33,11.33,0,0,0-12.2,1,7.19,7.19,0,0,0-2.69,5.72q0,4.76,7.07,7.66l6.47,2.65q7.91,3.19,11.57,7.8A17.57,17.57,0,0,1,109,555.58a19.86,19.86,0,0,1-6,14.81,20.52,20.52,0,0,1-14.93,5.88q-8.46,0-14-5t-6.77-14.09L77.24,555c.44,3.82,1.23,6.45,2.35,7.91q3,4.2,8.83,4.2A10.25,10.25,0,0,0,96,564a10.6,10.6,0,0,0,3-7.78,11,11,0,0,0-.52-3.47,8.92,8.92,0,0,0-1.64-2.9A13,13,0,0,0,94,547.4a27.75,27.75,0,0,0-4.21-2.21l-6.27-2.61Q70.22,537,70.21,526.1a15.64,15.64,0,0,1,5.6-12.24,20.19,20.19,0,0,1,13.92-5Q100.95,508.9,107.27,519.83Z"/><path class="cls-3" d="M185.5,559.32H157.69l-7.23,15.78H139.9l32.14-69,31,69H192.31Zm-4-9.21L171.87,528l-10.1,22.08Z"/><path class="cls-4" d="M247.53,510.16v55.72h19.1v9.22h-28.9V510.16Z"/><path class="cls-5" d="M312.3,510.16v39.11q0,8.37,2.74,12.24a13.37,13.37,0,0,0,11.48,5.59q7.44,0,11.52-5.59,2.74-3.74,2.74-12.24V510.16h9.8V552q0,10.27-6.4,16.91a24.72,24.72,0,0,1-35.28,0q-6.4-6.64-6.4-16.91v-41.8Z"/><path class="cls-6" d="M392.72,575.1V510.16h13.63q9.79,0,15.47,1.93a29,29,0,0,1,11.07,6.44q10,9.16,10.05,24.1t-10.47,24.22a30.63,30.63,0,0,1-11,6.44q-5.38,1.8-15.27,1.81Zm9.8-9.22h4.42a37,37,0,0,0,11-1.38,22.3,22.3,0,0,0,7.91-4.67q7.23-6.6,7.23-17.2T425.9,525.3q-6.43-5.94-19-5.93h-4.42Z"/><path class="cls-7" d="M544,397.46c-3.64,3.37-7.54,6.45-10.59,10.42-2.47,3.22-5.46,6.07-7.62,9.46-4.67,7.33-9.24,14.73-12.59,22.81-2.88,6.93-6.22,13.7-8.73,20.77-4.27,12.05-8,24.29-12.06,36.44-.31.93-.18,1.37.72,1.79a26.49,26.49,0,0,1,9.1,7,5.42,5.42,0,0,1,1.34,5.52,48.93,48.93,0,0,1-2.41,6.38c-1.48,3-3.44,5.7-4.81,8.72a139.35,139.35,0,0,0-7.74,21.43c-.82,3.06-1.86,6.12-4.5,8.24-1,.79-2.09,1.43-3.11,2.17-.35.26-.82.59-.87,1-.44,3.07-.34,6.12,1.41,8.81a32.72,32.72,0,0,0,3.4,4.24c1.71,1.86,6.1,2,8.27.66,2.93-1.79,4.21-4.73,5.18-7.62,3.19-9.45,6.34-18.93,9-28.54,5.31-19.38,11.49-38.48,17.66-57.59,3.48-10.74,6.93-21.5,10.05-32.35,1.93-6.68,3.2-13.55,4.78-20.33.29-1.24,0-2.48.51-3.8.82-2.33.88-4.92,1.45-7.35.51-2.19.13-4.49,1-6.62,0-.1-.07-.26-.07-.39a9.8,9.8,0,0,1,.08-1.88c.24-1.2.64-2.36.86-3.55.37-2,.64-4,1-6.3A7.28,7.28,0,0,0,544,397.46ZM490.64,567.27a1.88,1.88,0,1,1,1.87-1.88A1.88,1.88,0,0,1,490.64,567.27Zm7.64-20.5a1.88,1.88,0,1,1,1.87-1.87A1.88,1.88,0,0,1,498.28,546.77Zm6.69-21a1.88,1.88,0,1,1,1.88-1.88A1.88,1.88,0,0,1,505,525.74Z"/></svg>