<svg id="Crafticons_-_Simple_Set" data-name="Crafticons - Simple Set" xmlns="http://www.w3.org/2000/svg" viewBox="0 0 200 200"><defs><style>.cls-1,.cls-4{fill:#ba8bc5;}.cls-2{fill:#fff;}.cls-3{fill:#f5f5f5;}.cls-4{font-size:74.03px;font-family:MyriadPro-Bold, Myriad Pro;font-weight:700;letter-spacing:-0.04em;}</style></defs><path class="cls-1" d="M87.13-14.56H118a0,0,0,0,1,0,0V114.59a0,0,0,0,1,0,0H86.27a.52.52,0,0,1-.52-.52V-13.19A1.37,1.37,0,0,1,87.13-14.56Z" transform="translate(151.92 -51.88) rotate(90)"/><path d="M170.27,70H29.73V35.07c0-5.5,5.22-8.79,10.27-8.79H160c5.05,0,10.27,3.29,10.27,8.79ZM33.52,66.16h133V35.07c0-3.09-3.37-5-6.48-5H40c-3.11,0-6.48,1.91-6.48,5Z"/><circle class="cls-2" cx="59.81" cy="43.92" r="5.48"/><circle cx="57.98" cy="42.09" r="5.48"/><rect x="58.22" y="16.78" width="3.8" height="24.69"/><rect class="cls-3" x="54.42" y="16.78" width="3.8" height="24.69"/><circle class="cls-2" cx="143.86" cy="43.92" r="5.48"/><circle cx="142.04" cy="42.09" r="5.48"/><rect x="141.78" y="16.78" width="3.8" height="24.69"/><rect class="cls-3" x="137.99" y="16.78" width="3.8" height="24.69"/><rect x="86.7" y="56.66" width="26.59" height="3.8"/><path class="cls-2" d="M31.62,68.06H168.38a0,0,0,0,1,0,0V172.81a3.51,3.51,0,0,1-3.51,3.51H36a4.41,4.41,0,0,1-4.41-4.41V68.06A0,0,0,0,1,31.62,68.06Z"/><path d="M160,178.22H40c-5,0-10.27-3-10.27-8.56V66.16H170.27v103.5C170.27,175.22,165,178.22,160,178.22ZM33.52,70v99.7c0,3.09,3.34,4.76,6.48,4.76H160c3.14,0,6.48-1.67,6.48-4.76V70Z"/><text class="cls-4" transform="translate(61.87 145.87)">21</text></svg>