<?xml version="1.0" encoding="utf-8"?>
<!-- Generator: Adobe Illustrator 25.0.1, SVG Export Plug-In . SVG Version: 6.00 Build 0)  -->
<svg version="1.1" id="Layer_1" xmlns="http://www.w3.org/2000/svg" xmlns:xlink="http://www.w3.org/1999/xlink" x="0px" y="0px"
	 viewBox="0 0 612 612" style="enable-background:new 0 0 612 612;" xml:space="preserve">
<style type="text/css">
	.st0{fill:#464646;}
	.st1{fill:url(#SVGID_1_);}
	.st2{fill:url(#SVGID_2_);}
	.st3{fill:url(#SVGID_3_);}
	.st4{fill:url(#SVGID_4_);}
	.st5{fill:url(#SVGID_5_);}
	.st6{fill:url(#SVGID_6_);}
	.st7{fill:url(#SVGID_7_);}
	.st8{fill:url(#SVGID_8_);}
	.st9{fill:url(#SVGID_9_);}
	.st10{fill:url(#SVGID_10_);}
	.st11{fill:url(#SVGID_11_);}
	.st12{fill:url(#SVGID_12_);}
	.st13{fill:url(#SVGID_13_);}
	.st14{fill:url(#SVGID_14_);}
	.st15{fill:url(#SVGID_15_);}
	.st16{fill:url(#SVGID_16_);}
	.st17{fill:url(#SVGID_17_);}
	.st18{fill:url(#SVGID_18_);}
	.st19{fill:url(#SVGID_19_);}
</style>
<g>
	<path d="M123.6,247.1l-22,0v81.5h6.5v-27.6h12.5c7.4,0,13.8-2.7,19-7.9s7.9-11.7,7.9-19.1c0-7.4-2.7-13.8-7.9-19
		C135.2,250.7,129.9,248,123.6,247.1z M108.1,253.7h12.5c5.6,0,10.4,2,14.4,6c4,4,6,8.8,6,14.5s-2,10.5-6,14.5c-4,4-8.8,6-14.4,6
		h-12.5L108.1,253.7L108.1,253.7z"/>
	<path d="M219.9,274.1c0-7.4-2.7-13.8-7.9-19c-4.4-4.4-9.8-7-16-7.9l-22,0v81.5h6.5v-27.6H193c0.3,0,0.6,0,0.8,0l17.7,27.6h7.9
		L200.8,300c4.2-1.2,7.9-3.5,11.2-6.8C217.3,287.9,219.9,281.5,219.9,274.1z M213.4,274.1c0,5.6-2,10.5-6,14.5c-4,4-8.8,6-14.4,6
		h-12.5v-40.9H193c5.6,0,10.4,2,14.4,6C211.4,263.6,213.4,268.5,213.4,274.1z"/>
	<polygon points="246.5,328.6 288.2,328.6 288.2,322.2 252.9,322.2 252.9,291.1 288.2,291.1 288.2,284.7 252.9,284.7 252.9,253.6 
		288.2,253.6 288.2,247.1 246.5,247.1 	"/>
	<polygon points="313.2,253.6 333.3,253.6 333.3,328.6 339.8,328.6 339.8,253.6 359.9,253.6 359.9,247.1 313.2,247.1 	"/>
	<polygon points="381.2,253.6 401.3,253.6 401.3,328.6 407.8,328.6 407.8,253.6 427.9,253.6 427.9,247.1 381.2,247.1 	"/>
	<polygon points="503.7,247.1 479.8,288.5 455.9,247.1 448.5,247.1 476.5,295.8 476.5,328.6 483,328.6 483,295.8 511.1,247.1 	"/>
</g>
<g>
	<polygon points="108,344.6 101.6,344.6 101.6,425.4 138.6,425.4 138.6,419 108,419 	"/>
	<path d="M239,399.4c0,5.5-2,10.4-5.9,14.3s-8.7,5.9-14.3,5.9c-5.6,0-10.4-2-14.3-5.9s-5.9-8.8-5.9-14.3v-54.8H192v54.8
		c0,7.3,2.6,13.7,7.8,18.9c5.2,5.2,11.6,7.8,18.9,7.8c7.3,0,13.7-2.6,18.9-7.8c4.3-4.3,7-9.7,7.8-15.9l0-57.8H239L239,399.4
		L239,399.4z"/>
	<path d="M343.7,350.2c8.8,0,16.6,3,23.1,8.8l0.7,0.6l4.8-4.4l-0.8-0.7c-7.8-7.1-17.2-10.8-27.8-10.8c-11.4,0-21.2,4.1-29.2,12.1
		c-8,8-12.1,17.9-12.1,29.2c0,11.4,4.1,21.2,12.1,29.2c8,8,17.9,12.1,29.2,12.1c10.6,0,19.9-3.7,27.5-11l0.3-0.3v-27h-6.4v24.5
		c-6.2,4.9-13.4,7.3-21.4,7.3c-9.6,0-17.8-3.4-24.6-10.2c-6.8-6.8-10.2-15.1-10.2-24.7c0-9.6,3.4-17.8,10.2-24.6
		C325.9,353.6,334.1,350.2,343.7,350.2z"/>
	<path d="M498.3,355.6c-8-8-17.9-12.1-29.3-12.1s-21.2,4.1-29.3,12.1c-8,8-12.1,17.9-12.1,29.3s4.1,21.2,12.1,29.3
		c8,8,17.9,12.1,29.3,12.1s21.2-4.1,29.3-12.1c8-8,12.1-17.9,12.1-29.3S506.3,363.7,498.3,355.6z M503.9,384.9
		c0,9.6-3.4,17.9-10.2,24.7c-6.8,6.8-15.1,10.2-24.7,10.2s-17.9-3.5-24.7-10.2c-6.8-6.8-10.2-15.1-10.2-24.7
		c0-9.6,3.4-17.9,10.2-24.7c6.8-6.8,15.1-10.2,24.7-10.2c9.6,0,17.9,3.4,24.7,10.2C500.4,367,503.9,375.3,503.9,384.9z"/>
</g>
<g>
	<polygon points="101.6,448.6 121.7,448.6 121.7,523.5 128.2,523.5 128.2,448.6 148.3,448.6 148.3,442.1 101.6,442.1 	"/>
	<polygon points="211.2,481.5 180,481.5 180,442.1 173.5,442.1 173.5,523.5 180,523.5 180,488 211.2,488 211.2,523.5 217.7,523.5 
		217.7,442.1 211.2,442.1 	"/>
	<rect x="248.9" y="442.1" width="6.5" height="81.4"/>
	<polygon points="332.2,510 293,442.1 286.5,442.1 286.5,523.5 293,523.5 293,454.9 332.4,523.1 332.7,523.5 338.7,523.5 
		338.7,442.1 332.2,442.1 	"/>
	<path d="M409.3,447.7c8.9,0,16.7,3,23.3,8.8l0.7,0.6l4.9-4.4l-0.8-0.7c-7.9-7.2-17.3-10.8-28-10.8c-11.5,0-21.4,4.1-29.5,12.2
		c-8.1,8.1-12.2,18-12.2,29.5c0,11.5,4.1,21.4,12.2,29.5c8.1,8.1,18,12.2,29.5,12.2c10.7,0,20-3.7,27.8-11.1l0.3-0.3v-27.2h-6.5
		v24.8c-6.2,4.9-13.5,7.4-21.6,7.4c-9.6,0-18-3.5-24.8-10.3c-6.8-6.8-10.3-15.2-10.3-24.9c0-9.6,3.5-18,10.3-24.8
		C391.3,451.2,399.7,447.7,409.3,447.7z"/>
	<path d="M503.2,482.6c-4.4-4.4-9.9-7.7-16.4-9.8c-3.8-1.8-6.8-3.8-9-5.9c-2.2-2.2-3.3-4.9-3.3-8c0-3.2,1.1-5.8,3.3-8
		c2.2-2.2,4.9-3.3,8-3.3c3.2,0,5.8,1.1,8,3.3c1.2,1.2,2.1,2.6,2.7,4.1l0.4,1l5.9-2.3l-0.3-0.9c-0.7-2.3-2.1-4.5-4-6.3
		c-3.5-3.5-7.7-5.2-12.6-5.2c-4.9,0-9.2,1.8-12.6,5.2c-3.5,3.5-5.2,7.7-5.2,12.5c0,4.9,1.8,9.2,5.2,12.6c3.4,3.4,8,6,13.8,8
		c4.6,1.9,8.5,4.5,11.7,7.6c3.5,3.5,5.3,7.8,5.3,12.8c0,5-1.8,9.3-5.3,12.8c-3.5,3.5-7.9,5.3-12.9,5.3c-5,0-9.3-1.8-12.8-5.3
		c-3-3-4.8-6.6-5.2-10.7l-0.1-1.3l-6.2,2.2l0.1,0.8c0.8,5.1,3.1,9.6,6.9,13.4c4.8,4.8,10.6,7.2,17.3,7.2s12.6-2.4,17.3-7.2
		c4.8-4.8,7.2-10.6,7.2-17.4C510.4,493.2,508,487.4,503.2,482.6z"/>
</g>
<path id="XMLID_179_" class="st0" d="M534.2,148.5c-7-6.2-15.3-8.4-24.4-9.6c-12.3-1.6-24.7-2.2-37.1-2.1c-21.2,0.3-43.9,2-64.5,8.2
	c3.7-3.1,7.9-7.4,8.4-12.1c3.6-6.8-2.9-16.9-9.2-20.4c-7.4-4.1-16.2-5.1-23.5-9.4c-4.5-2.7-6.2-5.6-8.5-10c-1.2-2.3-2.1-4.1-4.7-5.1
	c-5.7-2.1-11.8,3.4-15.9,6.5c-6.4,4.7-12.3,10.1-17.6,15.9c-9.6,10.6-17.8,22.9-22.7,36.4c-0.3-0.3-0.6-0.7-0.9-1
	c-0.6-0.6-1.2-1.1-2-1.6c-1.4-1.8-3.5-2.4-5.7-2.1c-2.2-0.2-4.3,0.3-5.7,2.1c-0.8,0.5-1.4,1-2,1.6c-0.3,0.3-0.6,0.6-0.9,1
	c-4.9-13.5-13.1-25.8-22.7-36.4c-5.3-5.9-11.2-11.2-17.6-15.9c-4.1-3.1-10.2-8.6-15.9-6.5c-2.6,0.9-3.5,2.8-4.7,5.1
	c-2.3,4.4-4,7.4-8.5,10c-7.3,4.4-16.1,5.3-23.4,9.4c-6.3,3.5-12.8,13.6-9.2,20.4c0.5,4.8,4.7,9,8.4,12.1c-20.6-6.3-43.3-8-64.5-8.2
	c-12.4-0.1-24.8,0.4-37.1,2.1c-9.1,1.2-17.5,3.4-24.4,9.6c-1.6,1.5-0.6,3.9,1.2,4.6c13.8,4.8,27.6,9.6,41.5,14.2
	C107.3,180.7,97,195.9,89.3,213c-0.8,1.8,0.6,4.4,2.8,3.7c18-5.9,36.4-10.6,55.1-13.9c9.8-1.7,19.7-3.1,29.6-4.2
	c7.3-0.8,14.7-0.9,22-1.9c-0.5,1-1.1,2-1.7,3.1c-2.8,4.8-5.4,9.7-4.7,14.9c-0.5,2.4-0.2,5.1,1.2,7.9c3,5.9,9.9,6.4,15.7,5.4
	c10.2-1.7,20.5-5.8,29.9-9.8c10.1-4.2,20-9.2,29.4-14.9c5-3,9.6-5.9,14.5-8.4c0.4,0.6,1,1,2.1,1c3.4-0.1,6.8,0.1,10.1,0.8
	c0.3,0.1,0.6,0.1,0.9,0c0.2,0.2,0.3,0.5,0.5,0.7c2.2,2.7,5.8,3.7,9.2,3.3c3.4,0.4,6.9-0.6,9.2-3.3c0.2-0.2,0.4-0.5,0.5-0.7
	c0.3,0.1,0.6,0.1,0.9,0c3.4-0.6,6.7-0.9,10.1-0.8c1,0,1.7-0.4,2.1-1c4.8,2.6,9.5,5.4,14.5,8.4c9.4,5.7,19.2,10.6,29.4,14.9
	c9.5,3.9,19.8,8.1,29.9,9.8c5.8,1,12.7,0.5,15.7-5.4c1.4-2.9,1.8-5.5,1.2-7.9c0.7-5.2-1.9-10.2-4.7-14.9c-0.6-1-1.1-2-1.7-3.1
	c7.3,0.9,14.7,1.1,22,1.9c9.9,1,19.8,2.4,29.6,4.2c18.7,3.3,37.1,8,55.1,13.9c2.3,0.7,3.6-1.8,2.8-3.7c-7.8-17.1-18-32.3-31.1-45.7
	c13.9-4.6,27.6-9.5,41.5-14.2C534.8,152.5,535.9,150,534.2,148.5z M409.8,138.1c-1.5,2.2-3.9,4-6,5.6
	c-13.3,10.6-30.4,15.3-46.6,19.7c-11.4,3.1-24.1,6.6-34.4,13.2c0.8-1,1.7-2,2.5-3c7-5,14.8-8.6,22.5-12.6
	c11.5-5.9,23.1-11.6,34.4-17.8c0,0,0-0.1,0,0c-12.8,5.6-25.3,11.8-37.9,17.8c-4.1,2-8.6,3.8-12.9,6c8-8.3,16.9-15.8,25.8-22.9
	c8.9-7.2,18.4-14.4,29.5-17.7c6-1.8,12.9-2.5,19-0.8C411.3,127,413.2,133,409.8,138.1z M399.9,164.4c5.4,3.5,4.5,10.1,4.6,15.7
	c0.1,4.9,0.8,9.6,2.5,14.1c-0.1,0.6,0.1,1.2,0.6,1.5c0.2,0.4,0.3,0.8,0.5,1.2c1.4,2.9,3,5.6,4.5,8.4c-6.9-5.4-17.2-8.8-22.9-10.1
	c-12-2.8-24.3-4.2-36.4-6.1c-10.1-1.6-20.4-3.8-30.6-4.9c3.3-0.4,6.6-0.9,10-0.9c5.9-0.1,11.8,0.1,17.6,0.2
	c13,0.3,25.9,1.5,38.4,5.2c0.6,0.2,0.8-0.7,0.3-0.9c-12.5-4.5-25.5-6.4-38.6-7.5c-3.3-0.3-7-0.8-10.8-1.1c15.1-1.4,30.1-2,45.4-0.6
	c0.5,0.1,0.5-0.7,0-0.8c-16.3-2.1-33.1-2.9-49.5-1.1c0.7-0.4,1.5-0.7,2.2-1c11.9-2.3,23.6-4.7,35.6-6.3c0.2,0,0.2-0.4,0-0.4
	c-8.1,0.5-16.3,1.1-24.4,2.1c9.6-3.3,19.4-6.2,28.9-9.6c3.9-0.1,7.8,0,11.7,0.3C392.9,162,396.9,162.5,399.9,164.4z M204.3,195.7
	c0.5-0.4,0.7-0.9,0.6-1.5c1.7-4.5,2.4-9.2,2.5-14.1c0.2-5.6-0.8-12.2,4.6-15.7c3-1.9,6.9-2.4,10.4-2.7c3.9-0.4,7.8-0.4,11.7-0.3
	c9.6,3.4,19.3,6.3,28.9,9.6c-8.1-1.1-16.4-1.7-24.4-2.1c-0.2,0-0.2,0.4,0,0.4c12,1.5,23.8,4,35.6,6.3c0.7,0.3,1.5,0.7,2.2,1
	c-16.4-1.8-33.2-1.1-49.5,1.1c-0.5,0.1-0.5,0.8,0,0.8c15.3-1.4,30.3-0.9,45.4,0.6c-3.8,0.4-7.5,0.9-10.8,1.1
	c-13.2,1.1-26.1,3-38.6,7.5c-0.6,0.2-0.4,1.1,0.3,0.9c12.5-3.7,25.4-4.8,38.4-5.2c5.9-0.1,11.8-0.3,17.6-0.2c3.3,0,6.7,0.6,10,0.9
	c-10.3,1.1-20.5,3.3-30.6,4.9c-12.1,2-24.4,3.4-36.4,6.1c-5.7,1.3-15.9,4.7-22.9,10.1c1.4-2.7,3-5.4,4.5-8.4
	C204,196.5,204.1,196.1,204.3,195.7z M301.7,192.8c0,0.1,0.1,0.3,0.2,0.4c-0.1-0.1-0.2-0.2-0.2-0.2
	C301.6,192.9,301.6,192.8,301.7,192.8z M303,189.9c-1.2-6-0.1-12.7,0.1-18.6c0-1.5,0.1-3.1,0.1-4.6
	C303.9,174.4,304.5,182.2,303,189.9z M304,194.2C304.1,194.1,304.1,194.1,304,194.2c4-15-0.7-30.1-0.2-45.2c0.7-0.4,1.4-0.7,2.1-1
	c0.8,0.3,1.5,0.6,2.1,1c0.5,15.1-4.2,30.2-0.2,45.2c0,0,0,0,0,0.1c-0.6,0.2-1.3,0.3-2,0.3C305.3,194.5,304.7,194.3,304,194.2z
	 M308.9,171.3c0.2,5.9,1.3,12.6,0.1,18.6c-1.5-7.7-0.9-15.4-0.3-23.2C308.8,168.2,308.8,169.7,308.9,171.3z M310.3,192.8
	c0,0.1,0.1,0.1,0.1,0.2c-0.1,0.1-0.2,0.2-0.2,0.2C310.2,193.1,310.3,192.9,310.3,192.8z M335.5,120.6c4-5.1,8.5-9.8,13.2-14.2
	c4.3-3.9,9.4-9.3,14.8-11.6c8-3.3,8.5,3.5,12.8,7.7c3.3,3.2,7.7,5.2,12,6.8c8.7,3.2,20.2,6.7,23.6,14.5c-4.5-2.8-11.1-3.2-15.8-3
	c-12,0.5-22.9,6.4-32.5,13.3c-16.2,11.6-32.4,24.1-44,40.4c-0.5,0.4-1,0.9-1.5,1.4c0-1.8,0.1-3.6,0.1-5.4c0-2.9,0.2-6.3,0.1-9.8
	c3.7-12.8,17-23.4,25.8-32.7c0.1-0.1,0-0.2-0.1-0.1c-7.3,5.7-13.7,12.7-19.6,19.8c-2.2,2.7-4.7,5.6-6.4,8.8c0-0.4-0.1-0.7-0.1-1.1
	c3.9-9.7,12.1-19,18.4-26.4c7.4-8.7,16-16.1,24-24.3c0,0,0-0.1-0.1-0.1c-10.5,6.8-19.5,16.8-27.4,26.5c-5.3,6.4-11.5,13.7-15.5,21.6
	c-0.1-0.3-0.2-0.6-0.3-0.9C322.3,140.8,328,130.2,335.5,120.6z M312.5,170.6c0,4.7-0.2,9.5-0.4,14.2c-0.1,0-0.2,0-0.3,0.1
	c0.1-3-0.1-6-0.2-9.1c-0.2-7.9-0.4-15.7-0.7-23.6c0.2,0.4,0.4,0.8,0.5,1.2C313.2,158.6,312.5,165.2,312.5,170.6z M300.6,153.4
	c0.2-0.5,0.3-0.9,0.5-1.2c-0.3,7.9-0.5,15.7-0.7,23.6c-0.1,3-0.3,6.1-0.2,9.1c-0.1,0-0.2-0.1-0.3-0.1c-0.3-4.7-0.4-9.5-0.4-14.2
	C299.5,165.2,298.8,158.6,300.6,153.4z M223.6,109.4c4.3-1.6,8.7-3.6,12-6.8c4.3-4.2,4.9-10.9,12.8-7.7c5.4,2.2,10.5,7.6,14.8,11.6
	c4.8,4.4,9.2,9.2,13.2,14.2c7.6,9.6,13.2,20.2,18.4,31.2c-0.1,0.3-0.2,0.6-0.3,0.9c-3.9-7.9-10.2-15.1-15.5-21.6
	c-7.9-9.6-16.9-19.6-27.4-26.5c-0.1,0-0.1,0-0.1,0.1c7.9,8.2,16.5,15.6,24,24.3c6.3,7.4,14.5,16.6,18.4,26.4
	c-0.1,0.4-0.1,0.7-0.1,1.1c-1.7-3.2-4.1-6-6.4-8.8c-5.8-7.1-12.3-14.1-19.6-19.8c-0.1-0.1-0.2,0-0.1,0.1c8.8,9.2,22,19.8,25.8,32.7
	c-0.1,3.5,0.1,7,0.1,9.8c0,1.8,0,3.6,0.1,5.4c-0.5-0.5-1-0.9-1.5-1.4c-11.6-16.3-27.8-28.7-44-40.4c-9.6-6.9-20.4-12.8-32.5-13.3
	c-4.7-0.2-11.3,0.2-15.8,3C203.4,116,215,112.6,223.6,109.4z M202.2,138.1c-3.5-5.1-1.6-11.1,4.1-12.7c6.1-1.7,13-0.9,19,0.8
	c11.1,3.3,20.6,10.5,29.5,17.7c8.8,7.1,17.8,14.6,25.8,22.9c-4.3-2.1-8.7-4-12.9-6c-12.6-6-25.1-12.2-37.9-17.8c0,0-0.1,0,0,0
	c11.3,6.2,22.9,11.9,34.4,17.8c7.8,4,15.5,7.6,22.5,12.6c0.8,1,1.7,2,2.5,3c-10.3-6.6-23.1-10.2-34.4-13.2
	c-16.2-4.4-33.2-9.1-46.6-19.7C206.2,142.1,203.8,140.4,202.2,138.1z M147.2,197.4c-17.2,3.1-34.2,7.4-50.9,12.7
	c8.2-15.7,19-29.8,31.9-41.9c1.8-1.7,0.8-4.4-1.3-5.1c-13.7-4.6-27.5-9.1-41.3-13.6c8.1-4.9,18.3-5.4,27.5-6.2
	c10.6-0.9,21.3-1.3,32-1.1c22.2,0.4,43.6,4.7,65.4,7.9c1.9,1.2,3.8,2.4,5.7,3.4c-24.5-3.8-49.6-5.1-74.4-4.6c-0.2,0-0.2,0.2,0,0.2
	c26.9,0.7,53.2,3.6,79.7,8.3c-2.2,0.1-4.3,0.4-6.2,0.9c-19.4-4.3-40.9-4.2-60.3-1c-0.2,0-0.1,0.3,0,0.3c19-0.9,36.9,0.3,55.5,2.4
	c-3,1.6-5.4,3.9-6.8,7.2c-1.8,4.5-0.6,9.6-0.7,14.3c-0.1,3.8-0.9,7.1-2.1,10.4C183.6,190.5,164.3,194.3,147.2,197.4z M257.1,205.1
	c-14.7,8.1-31.8,16.7-48.6,19.7c-5.3,0.9-6.6,0.7-9.8-3.6c-3.4-2.5-3.7-5.5-1-9c0.8-1,1.6-2,2.5-3c3.6-3.6,8.7-6.1,13.4-7.8
	c7.4-2.7,15.4-3.9,23.2-5.1c12.9-2.1,26.3-3.6,39.4-5.8c-1.9,0.8-3.7,1.9-5.7,3c-5.6,3.2-11.3,6.1-17.1,8.8
	c-7,3.2-14.2,6.1-21.5,8.7c-6.7,2.3-14.3,5.6-21.4,4.9c-0.5-0.1-0.4,0.7,0,0.7c11.8,1.6,26.4-5.5,37.2-9.8
	c5.2-2.1,10.3-4.3,15.4-6.7c2.8-1.3,5.5-2.8,8.2-4.2C266.6,199.2,261.8,202.6,257.1,205.1z M294.7,192.2
	C294.7,192.2,294.7,192.2,294.7,192.2C294.8,192.2,294.8,192.2,294.7,192.2L294.7,192.2z M317.2,192.2
	C317.2,192.2,317.2,192.2,317.2,192.2C317.3,192.2,317.3,192.2,317.2,192.2C317.3,192.2,317.3,192.2,317.2,192.2z M413.2,221.3
	c-3.2,4.3-4.5,4.5-9.8,3.6c-16.7-3-33.8-11.6-48.5-19.7c-4.6-2.6-9.5-5.9-14.4-9.2c2.7,1.4,5.4,2.9,8.2,4.2c5,2.4,10.2,4.6,15.4,6.7
	c10.8,4.3,25.5,11.3,37.2,9.8c0.5-0.1,0.5-0.8,0-0.7c-7.1,0.7-14.7-2.6-21.4-4.9c-7.3-2.5-14.5-5.4-21.5-8.7
	c-5.8-2.7-11.5-5.7-17.1-8.8c-1.9-1.1-3.8-2.2-5.7-3c13.1,2.3,26.5,3.8,39.4,5.8c7.8,1.3,15.7,2.4,23.2,5.1
	c4.7,1.7,9.8,4.2,13.5,7.8c0.8,1,1.6,2,2.5,3C416.9,215.8,416.5,218.8,413.2,221.3z M485.1,163.1c-2.1,0.7-3.1,3.4-1.4,5.1
	c12.9,12.2,23.7,26.3,31.9,41.9c-16.7-5.2-33.7-9.6-50.9-12.7c-17-3.1-36.3-6.9-53.8-5.5c-1.2-3.2-2-6.6-2.1-10.4
	c-0.2-4.7,1-9.8-0.7-14.3c-1.3-3.4-3.7-5.7-6.8-7.2c18.6-2.1,36.5-3.2,55.5-2.4c0.2,0,0.2-0.3,0-0.3c-19.4-3.2-41-3.3-60.3,1
	c-2-0.5-4.1-0.7-6.2-0.9c26.4-4.6,52.8-7.6,79.7-8.3c0.2,0,0.2-0.2,0-0.2c-24.8-0.6-49.8,0.8-74.4,4.6c2-1.1,3.9-2.2,5.7-3.4
	c21.8-3.2,43.2-7.5,65.4-7.9c10.7-0.2,21.4,0.2,32,1.1c9.2,0.8,19.4,1.3,27.5,6.2C512.6,154,498.9,158.4,485.1,163.1z"/>
<g>
	<linearGradient id="SVGID_1_" gradientUnits="userSpaceOnUse" x1="95.0274" y1="150.6555" x2="516.2661" y2="150.6555">
		<stop  offset="5.586592e-03" style="stop-color:#FFBDD9"/>
		<stop  offset="1" style="stop-color:#FFDB7C"/>
	</linearGradient>
	<path class="st1" d="M409.8,138.1c-1.5,2.2-3.9,4-6,5.6c-13.3,10.6-30.4,15.3-46.6,19.7c-11.4,3.1-24.1,6.6-34.4,13.2
		c0.8-1,1.7-2,2.5-3c7-5,14.8-8.6,22.5-12.6c11.5-5.9,23.1-11.6,34.4-17.8c0,0,0-0.1,0,0c-12.8,5.6-25.3,11.8-37.9,17.8
		c-4.1,2-8.6,3.8-12.9,6c8-8.3,16.9-15.8,25.8-22.9c8.9-7.2,18.4-14.4,29.5-17.7c6-1.8,12.9-2.5,19-0.8
		C411.3,127,413.2,133,409.8,138.1z"/>
	<linearGradient id="SVGID_2_" gradientUnits="userSpaceOnUse" x1="95.0274" y1="183.309" x2="516.2661" y2="183.309">
		<stop  offset="5.586592e-03" style="stop-color:#FFBDD9"/>
		<stop  offset="1" style="stop-color:#FFDB7C"/>
	</linearGradient>
	<path class="st2" d="M399.9,164.4c5.4,3.5,4.5,10.1,4.6,15.7c0.1,4.9,0.8,9.6,2.5,14.1c-0.1,0.6,0.1,1.2,0.6,1.5
		c0.2,0.4,0.3,0.8,0.5,1.2c1.4,2.9,3,5.6,4.5,8.4c-6.9-5.4-17.2-8.8-22.9-10.1c-12-2.8-24.3-4.2-36.4-6.1
		c-10.1-1.6-20.4-3.8-30.6-4.9c3.3-0.4,6.6-0.9,10-0.9c5.9-0.1,11.8,0.1,17.6,0.2c13,0.3,25.9,1.5,38.4,5.2c0.6,0.2,0.8-0.7,0.3-0.9
		c-12.5-4.5-25.5-6.4-38.6-7.5c-3.3-0.3-7-0.8-10.8-1.1c15.1-1.4,30.1-2,45.4-0.6c0.5,0.1,0.5-0.7,0-0.8
		c-16.3-2.1-33.1-2.9-49.5-1.1c0.7-0.4,1.5-0.7,2.2-1c11.9-2.3,23.6-4.7,35.6-6.3c0.2,0,0.2-0.4,0-0.4c-8.1,0.5-16.3,1.1-24.4,2.1
		c9.6-3.3,19.4-6.2,28.9-9.6c3.9-0.1,7.8,0,11.7,0.3C392.9,162,396.9,162.5,399.9,164.4z"/>
	<linearGradient id="SVGID_3_" gradientUnits="userSpaceOnUse" x1="95.0274" y1="183.319" x2="516.2661" y2="183.319">
		<stop  offset="5.586592e-03" style="stop-color:#FFBDD9"/>
		<stop  offset="1" style="stop-color:#FFDB7C"/>
	</linearGradient>
	<path class="st3" d="M204.3,195.7c0.5-0.4,0.7-0.9,0.6-1.5c1.7-4.5,2.4-9.2,2.5-14.1c0.2-5.6-0.8-12.2,4.6-15.7
		c3-1.9,6.9-2.4,10.4-2.7c3.9-0.4,7.8-0.4,11.7-0.3c9.6,3.4,19.3,6.3,28.9,9.6c-8.1-1.1-16.4-1.7-24.4-2.1c-0.2,0-0.2,0.4,0,0.4
		c12,1.5,23.8,4,35.6,6.3c0.7,0.3,1.5,0.7,2.2,1c-16.4-1.8-33.2-1.1-49.5,1.1c-0.5,0.1-0.5,0.8,0,0.8c15.3-1.4,30.3-0.9,45.4,0.6
		c-3.8,0.4-7.5,0.9-10.8,1.1c-13.2,1.1-26.1,3-38.6,7.5c-0.6,0.2-0.4,1.1,0.3,0.9c12.5-3.7,25.4-4.8,38.4-5.2
		c5.9-0.1,11.8-0.3,17.6-0.2c3.3,0,6.7,0.6,10,0.9c-10.3,1.1-20.5,3.3-30.6,4.9c-12.1,2-24.4,3.4-36.4,6.1
		c-5.7,1.3-15.9,4.7-22.9,10.1c1.4-2.7,3-5.4,4.5-8.4C204,196.5,204.1,196.1,204.3,195.7z"/>
	<linearGradient id="SVGID_4_" gradientUnits="userSpaceOnUse" x1="95.0274" y1="192.9999" x2="516.2661" y2="192.9999">
		<stop  offset="5.586592e-03" style="stop-color:#FFBDD9"/>
		<stop  offset="1" style="stop-color:#FFDB7C"/>
	</linearGradient>
	<path class="st4" d="M301.7,192.8c0,0.1,0.1,0.3,0.2,0.4c-0.1-0.1-0.2-0.2-0.2-0.2C301.6,192.9,301.6,192.8,301.7,192.8z"/>
	<linearGradient id="SVGID_5_" gradientUnits="userSpaceOnUse" x1="95.0274" y1="178.2999" x2="516.2661" y2="178.2999">
		<stop  offset="5.586592e-03" style="stop-color:#FFBDD9"/>
		<stop  offset="1" style="stop-color:#FFDB7C"/>
	</linearGradient>
	<path class="st5" d="M303,189.9c-1.2-6-0.1-12.7,0.1-18.6c0-1.5,0.1-3.1,0.1-4.6C303.9,174.5,304.5,182.2,303,189.9z"/>
	<linearGradient id="SVGID_6_" gradientUnits="userSpaceOnUse" x1="95.0274" y1="171.2149" x2="516.2661" y2="171.2149">
		<stop  offset="5.586592e-03" style="stop-color:#FFBDD9"/>
		<stop  offset="1" style="stop-color:#FFDB7C"/>
	</linearGradient>
	<path class="st6" d="M304,194.2C304.1,194.2,304.1,194.1,304,194.2c4-15-0.7-30.1-0.2-45.2c0.7-0.4,1.4-0.7,2.1-1
		c0.8,0.3,1.5,0.6,2.1,1c0.5,15.1-4.2,30.2-0.2,45.2c0,0,0,0,0,0.1c-0.6,0.2-1.3,0.3-2,0.3C305.3,194.5,304.7,194.3,304,194.2z"/>
	<linearGradient id="SVGID_7_" gradientUnits="userSpaceOnUse" x1="95.0274" y1="178.2999" x2="516.2661" y2="178.2999">
		<stop  offset="5.586592e-03" style="stop-color:#FFBDD9"/>
		<stop  offset="1" style="stop-color:#FFDB7C"/>
	</linearGradient>
	<path class="st7" d="M308.9,171.3c0.2,5.9,1.3,12.6,0.1,18.6c-1.5-7.7-0.9-15.4-0.3-23.2C308.8,168.2,308.8,169.7,308.9,171.3z"/>
	<linearGradient id="SVGID_8_" gradientUnits="userSpaceOnUse" x1="95.0274" y1="193.0049" x2="516.2661" y2="193.0049">
		<stop  offset="5.586592e-03" style="stop-color:#FFBDD9"/>
		<stop  offset="1" style="stop-color:#FFDB7C"/>
	</linearGradient>
	<path class="st8" d="M310.3,192.8c0,0.1,0.1,0.1,0.1,0.2c-0.1,0.1-0.2,0.2-0.2,0.2C310.2,193.1,310.3,192.9,310.3,192.8z"/>
	<linearGradient id="SVGID_9_" gradientUnits="userSpaceOnUse" x1="95.0274" y1="134.9698" x2="516.2661" y2="134.9698">
		<stop  offset="5.586592e-03" style="stop-color:#FFBDD9"/>
		<stop  offset="1" style="stop-color:#FFDB7C"/>
	</linearGradient>
	<path class="st9" d="M335.5,120.7c4-5.1,8.5-9.8,13.2-14.2c4.3-3.9,9.4-9.3,14.8-11.6c8-3.3,8.5,3.5,12.8,7.7
		c3.3,3.2,7.7,5.2,12,6.8c8.7,3.2,20.2,6.7,23.6,14.5c-4.5-2.8-11.1-3.2-15.8-3c-12,0.5-22.9,6.4-32.5,13.3
		c-16.2,11.6-32.4,24.1-44,40.4c-0.5,0.4-1,0.9-1.5,1.4c0-1.8,0.1-3.6,0.1-5.4c0-2.9,0.2-6.3,0.1-9.8c3.7-12.8,17-23.4,25.8-32.7
		c0.1-0.1,0-0.2-0.1-0.1c-7.3,5.7-13.7,12.7-19.6,19.8c-2.2,2.7-4.7,5.6-6.4,8.8c0-0.4-0.1-0.7-0.1-1.1c3.9-9.7,12.1-19,18.4-26.4
		c7.4-8.7,16-16.1,24-24.3c0,0,0-0.1-0.1-0.1c-10.5,6.8-19.5,16.8-27.4,26.5c-5.3,6.4-11.5,13.7-15.5,21.6c-0.1-0.3-0.2-0.6-0.3-0.9
		C322.3,140.8,328,130.2,335.5,120.7z"/>
	<linearGradient id="SVGID_10_" gradientUnits="userSpaceOnUse" x1="95.0274" y1="168.5099" x2="516.2661" y2="168.5099">
		<stop  offset="5.586592e-03" style="stop-color:#FFBDD9"/>
		<stop  offset="1" style="stop-color:#FFDB7C"/>
	</linearGradient>
	<path class="st10" d="M312.5,170.6c0,4.7-0.2,9.5-0.4,14.2c-0.1,0-0.2,0-0.3,0.1c0.1-3-0.1-6-0.2-9.1c-0.2-7.9-0.4-15.7-0.7-23.6
		c0.2,0.4,0.4,0.8,0.5,1.2C313.2,158.6,312.5,165.2,312.5,170.6z"/>
	<linearGradient id="SVGID_11_" gradientUnits="userSpaceOnUse" x1="95.0274" y1="168.5199" x2="516.2661" y2="168.5199">
		<stop  offset="5.586592e-03" style="stop-color:#FFBDD9"/>
		<stop  offset="1" style="stop-color:#FFDB7C"/>
	</linearGradient>
	<path class="st11" d="M300.6,153.5c0.2-0.5,0.3-0.9,0.5-1.2c-0.3,7.9-0.5,15.7-0.7,23.6c-0.1,3-0.3,6.1-0.2,9.1
		c-0.1,0-0.2-0.1-0.3-0.1c-0.3-4.7-0.4-9.5-0.4-14.2C299.5,165.2,298.8,158.6,300.6,153.5z"/>
	<linearGradient id="SVGID_12_" gradientUnits="userSpaceOnUse" x1="95.0274" y1="134.9898" x2="516.2661" y2="134.9898">
		<stop  offset="5.586592e-03" style="stop-color:#FFBDD9"/>
		<stop  offset="1" style="stop-color:#FFDB7C"/>
	</linearGradient>
	<path class="st12" d="M223.6,109.4c4.3-1.6,8.7-3.6,12-6.8c4.3-4.2,4.9-10.9,12.8-7.7c5.4,2.2,10.5,7.6,14.8,11.6
		c4.8,4.4,9.2,9.2,13.2,14.2c7.6,9.6,13.2,20.2,18.4,31.2c-0.1,0.3-0.2,0.6-0.3,0.9c-3.9-7.9-10.2-15.1-15.5-21.6
		c-7.9-9.6-16.9-19.6-27.4-26.5c-0.1,0-0.1,0-0.1,0.1c7.9,8.2,16.5,15.6,24,24.3c6.3,7.4,14.5,16.6,18.4,26.4
		c-0.1,0.4-0.1,0.7-0.1,1.1c-1.7-3.2-4.1-6-6.4-8.8c-5.8-7.1-12.3-14.1-19.6-19.8c-0.1-0.1-0.2,0-0.1,0.1c8.8,9.2,22,19.8,25.8,32.7
		c-0.1,3.5,0.1,7,0.1,9.8c0,1.8,0,3.6,0.1,5.4c-0.5-0.5-1-0.9-1.5-1.4c-11.6-16.3-27.8-28.7-44-40.4c-9.6-6.9-20.4-12.8-32.5-13.3
		c-4.7-0.2-11.3,0.2-15.8,3C203.4,116,215,112.6,223.6,109.4z"/>
	<linearGradient id="SVGID_13_" gradientUnits="userSpaceOnUse" x1="95.0274" y1="150.6377" x2="516.2661" y2="150.6377">
		<stop  offset="5.586592e-03" style="stop-color:#FFBDD9"/>
		<stop  offset="1" style="stop-color:#FFDB7C"/>
	</linearGradient>
	<path class="st13" d="M202.2,138.1c-3.5-5.1-1.6-11.1,4.1-12.7c6.1-1.7,13-0.9,19,0.8c11.1,3.3,20.6,10.5,29.5,17.7
		c8.8,7.1,17.8,14.6,25.8,22.9c-4.3-2.1-8.7-4-12.9-6c-12.6-6-25.1-12.2-37.9-17.8c0,0-0.1,0,0,0c11.3,6.2,22.9,11.9,34.4,17.8
		c7.8,4,15.5,7.6,22.5,12.6c0.8,1,1.7,2,2.5,3c-10.3-6.6-23.1-10.2-34.4-13.2c-16.2-4.4-33.2-9.1-46.6-19.7
		C206.2,142.1,203.8,140.4,202.2,138.1z"/>
	<linearGradient id="SVGID_14_" gradientUnits="userSpaceOnUse" x1="95.0274" y1="176.1337" x2="516.2661" y2="176.1337">
		<stop  offset="5.586592e-03" style="stop-color:#FFBDD9"/>
		<stop  offset="1" style="stop-color:#FFDB7C"/>
	</linearGradient>
	<path class="st14" d="M147.2,197.4c-17.2,3.1-34.2,7.4-50.9,12.7c8.2-15.7,19-29.8,31.9-41.9c1.8-1.7,0.8-4.4-1.3-5.1
		c-13.7-4.6-27.5-9.1-41.3-13.6c8.1-4.9,18.3-5.4,27.5-6.2c10.6-0.9,21.3-1.3,32-1.1c22.2,0.4,43.6,4.7,65.4,7.9
		c1.9,1.2,3.8,2.4,5.7,3.4c-24.5-3.8-49.6-5.1-74.4-4.6c-0.2,0-0.2,0.2,0,0.2c26.9,0.7,53.2,3.6,79.7,8.3c-2.2,0.1-4.3,0.4-6.2,0.9
		c-19.4-4.3-40.9-4.2-60.3-1c-0.2,0-0.1,0.3,0,0.3c19-0.9,36.9,0.3,55.5,2.4c-3,1.6-5.4,3.9-6.8,7.2c-1.8,4.5-0.6,9.6-0.7,14.3
		c-0.1,3.8-0.9,7.1-2.1,10.4C183.6,190.5,164.3,194.3,147.2,197.4z"/>
	<linearGradient id="SVGID_15_" gradientUnits="userSpaceOnUse" x1="95.0274" y1="207.9698" x2="516.2661" y2="207.9698">
		<stop  offset="5.586592e-03" style="stop-color:#FFBDD9"/>
		<stop  offset="1" style="stop-color:#FFDB7C"/>
	</linearGradient>
	<path class="st15" d="M257.1,205.2c-14.7,8.1-31.8,16.7-48.6,19.7c-5.3,0.9-6.6,0.7-9.8-3.6c-3.4-2.5-3.7-5.5-1-9
		c0.8-1,1.6-2,2.5-3c3.6-3.6,8.7-6.1,13.4-7.8c7.4-2.7,15.4-3.9,23.2-5.1c12.9-2.1,26.3-3.6,39.4-5.8c-1.9,0.8-3.7,1.9-5.7,3
		c-5.6,3.2-11.3,6.1-17.1,8.8c-7,3.2-14.2,6.1-21.5,8.7c-6.7,2.3-14.3,5.6-21.4,4.9c-0.5-0.1-0.4,0.7,0,0.7
		c11.8,1.6,26.4-5.5,37.2-9.8c5.2-2.1,10.3-4.3,15.4-6.7c2.8-1.3,5.5-2.8,8.2-4.2C266.6,199.2,261.8,202.6,257.1,205.2z"/>
	<linearGradient id="SVGID_16_" gradientUnits="userSpaceOnUse" x1="264.7107" y1="192.1876" x2="324.7693" y2="192.1876">
		<stop  offset="5.586592e-03" style="stop-color:#FFBDD9"/>
		<stop  offset="1" style="stop-color:#FFDB7C"/>
	</linearGradient>
	<path class="st16" d="M294.7,192.2C294.7,192.2,294.7,192.2,294.7,192.2C294.8,192.2,294.8,192.2,294.7,192.2L294.7,192.2z"/>
	<linearGradient id="SVGID_17_" gradientUnits="userSpaceOnUse" x1="287.2207" y1="192.1876" x2="347.2793" y2="192.1876">
		<stop  offset="5.586592e-03" style="stop-color:#FFBDD9"/>
		<stop  offset="1" style="stop-color:#FFDB7C"/>
	</linearGradient>
	<path class="st17" d="M317.2,192.2C317.2,192.2,317.2,192.2,317.2,192.2C317.3,192.2,317.3,192.2,317.2,192.2
		C317.3,192.2,317.3,192.2,317.2,192.2z"/>
	<linearGradient id="SVGID_18_" gradientUnits="userSpaceOnUse" x1="95.0274" y1="207.9639" x2="516.2661" y2="207.9639">
		<stop  offset="5.586592e-03" style="stop-color:#FFBDD9"/>
		<stop  offset="1" style="stop-color:#FFDB7C"/>
	</linearGradient>
	<path class="st18" d="M413.2,221.3c-3.2,4.3-4.5,4.5-9.8,3.6c-16.7-3-33.8-11.6-48.5-19.7c-4.6-2.6-9.5-5.9-14.4-9.2
		c2.7,1.4,5.4,2.9,8.2,4.2c5,2.4,10.2,4.6,15.4,6.7c10.8,4.3,25.5,11.3,37.2,9.8c0.5-0.1,0.5-0.8,0-0.7c-7.1,0.7-14.7-2.6-21.4-4.9
		c-7.3-2.5-14.5-5.4-21.5-8.7c-5.8-2.7-11.5-5.7-17.1-8.8c-1.9-1.1-3.8-2.2-5.7-3c13.1,2.3,26.5,3.8,39.4,5.8
		c7.8,1.3,15.7,2.4,23.2,5.1c4.7,1.7,9.8,4.2,13.5,7.8c0.8,1,1.6,2,2.5,3C416.9,215.8,416.5,218.8,413.2,221.3z"/>
	<linearGradient id="SVGID_19_" gradientUnits="userSpaceOnUse" x1="95.0274" y1="176.1286" x2="516.2661" y2="176.1286">
		<stop  offset="5.586592e-03" style="stop-color:#FFBDD9"/>
		<stop  offset="1" style="stop-color:#FFDB7C"/>
	</linearGradient>
	<path class="st19" d="M485.1,163.1c-2.1,0.7-3.1,3.4-1.4,5.1c12.9,12.2,23.7,26.3,31.9,41.9c-16.7-5.2-33.7-9.6-50.9-12.7
		c-17-3.1-36.3-6.9-53.8-5.5c-1.2-3.2-2-6.6-2.1-10.4c-0.2-4.7,1-9.8-0.7-14.3c-1.3-3.4-3.7-5.7-6.8-7.2c18.6-2.1,36.5-3.2,55.5-2.4
		c0.2,0,0.2-0.3,0-0.3c-19.4-3.2-41-3.3-60.3,1c-2-0.5-4.1-0.7-6.2-0.9c26.4-4.6,52.8-7.6,79.7-8.3c0.2,0,0.2-0.2,0-0.2
		c-24.8-0.6-49.8,0.8-74.4,4.6c2-1.1,3.9-2.2,5.7-3.4c21.8-3.2,43.2-7.5,65.4-7.9c10.7-0.2,21.4,0.2,32,1.1
		c9.2,0.8,19.4,1.3,27.5,6.2C512.6,154,498.9,158.4,485.1,163.1z"/>
</g>
</svg>
