<svg id="Layer_1" data-name="Layer 1" xmlns="http://www.w3.org/2000/svg" xmlns:xlink="http://www.w3.org/1999/xlink" viewBox="0 0 458.16 436.99"><defs><style>.cls-1{fill:#464646;}.cls-2{fill:url(#linear-gradient);}.cls-3{fill:url(#linear-gradient-2);}.cls-4{fill:url(#linear-gradient-3);}.cls-5{fill:url(#linear-gradient-4);}.cls-6{fill:url(#linear-gradient-5);}.cls-7{fill:url(#linear-gradient-6);}.cls-8{fill:url(#linear-gradient-8);}.cls-9{fill:url(#linear-gradient-9);}.cls-10{fill:url(#linear-gradient-10);}.cls-11{fill:url(#linear-gradient-11);}.cls-12{fill:url(#linear-gradient-12);}.cls-13{fill:url(#linear-gradient-13);}.cls-14{fill:url(#linear-gradient-14);}.cls-15{fill:url(#linear-gradient-15);}.cls-16{fill:url(#linear-gradient-16);}.cls-17{fill:url(#linear-gradient-17);}.cls-18{fill:url(#linear-gradient-18);}.cls-19{fill:url(#linear-gradient-19);}</style><linearGradient id="linear-gradient" x1="95.03" y1="150.66" x2="516.27" y2="150.66" gradientUnits="userSpaceOnUse"><stop offset="0.01" stop-color="#ffbdd9"/><stop offset="1" stop-color="#ffdb7c"/></linearGradient><linearGradient id="linear-gradient-2" x1="95.03" y1="183.31" x2="516.27" y2="183.31" xlink:href="#linear-gradient"/><linearGradient id="linear-gradient-3" x1="95.03" y1="183.32" x2="516.27" y2="183.32" xlink:href="#linear-gradient"/><linearGradient id="linear-gradient-4" x1="95.03" y1="193" x2="516.27" y2="193" xlink:href="#linear-gradient"/><linearGradient id="linear-gradient-5" x1="95.03" y1="178.3" x2="516.27" y2="178.3" xlink:href="#linear-gradient"/><linearGradient id="linear-gradient-6" x1="95.03" y1="171.21" x2="516.27" y2="171.21" xlink:href="#linear-gradient"/><linearGradient id="linear-gradient-8" x1="95.03" y1="193" x2="516.27" y2="193" xlink:href="#linear-gradient"/><linearGradient id="linear-gradient-9" x1="95.03" y1="134.97" x2="516.27" y2="134.97" xlink:href="#linear-gradient"/><linearGradient id="linear-gradient-10" x1="95.03" y1="168.51" x2="516.27" y2="168.51" xlink:href="#linear-gradient"/><linearGradient id="linear-gradient-11" x1="95.03" y1="168.52" x2="516.27" y2="168.52" xlink:href="#linear-gradient"/><linearGradient id="linear-gradient-12" x1="95.03" y1="134.99" x2="516.27" y2="134.99" xlink:href="#linear-gradient"/><linearGradient id="linear-gradient-13" x1="95.03" y1="150.64" x2="516.27" y2="150.64" xlink:href="#linear-gradient"/><linearGradient id="linear-gradient-14" x1="95.03" y1="176.13" x2="516.27" y2="176.13" xlink:href="#linear-gradient"/><linearGradient id="linear-gradient-15" x1="95.03" y1="207.97" x2="516.27" y2="207.97" xlink:href="#linear-gradient"/><linearGradient id="linear-gradient-16" x1="264.71" y1="192.19" x2="324.77" y2="192.19" xlink:href="#linear-gradient"/><linearGradient id="linear-gradient-17" x1="287.22" y1="192.19" x2="347.28" y2="192.19" xlink:href="#linear-gradient"/><linearGradient id="linear-gradient-18" x1="95.03" y1="207.96" x2="516.27" y2="207.96" xlink:href="#linear-gradient"/><linearGradient id="linear-gradient-19" x1="95.03" y1="176.13" x2="516.27" y2="176.13" xlink:href="#linear-gradient"/></defs><path d="M123.61,247.15h-22v81.5h6.47V301.06H120.6a27,27,0,0,0,19-46A27.53,27.53,0,0,0,123.61,247.15Zm-15.53,6.52H120.6a20.44,20.44,0,0,1,0,40.88H108.07V253.67Z" transform="translate(-76.89 -87.51)"/><path d="M220,274.08a26.05,26.05,0,0,0-7.9-19,27.43,27.43,0,0,0-16-7.89H174v81.5h6.47V301.06H193l.81,0,17.72,27.59h7.9L200.85,300A26.44,26.44,0,0,0,212,293.16,26,26,0,0,0,220,274.08Zm-6.52,0A20.45,20.45,0,0,1,193,294.54H180.5V253.66H193a20.43,20.43,0,0,1,20.42,20.42Z" transform="translate(-76.89 -87.51)"/><polygon points="169.57 241.13 211.31 241.13 211.31 234.66 176.04 234.66 176.04 203.62 211.31 203.62 211.31 197.15 176.04 197.15 176.04 166.11 211.31 166.11 211.31 159.63 169.57 159.63 169.57 241.13"/><polygon points="236.32 166.11 256.45 166.11 256.45 241.13 262.92 241.13 262.92 166.11 283.04 166.11 283.04 159.63 236.32 159.63 236.32 166.11"/><polygon points="304.33 166.11 324.45 166.11 324.45 241.13 330.92 241.13 330.92 166.11 351.05 166.11 351.05 159.63 304.33 159.63 304.33 166.11"/><polygon points="426.81 159.63 402.89 201.02 379.03 159.63 371.6 159.63 399.66 208.25 399.66 241.13 406.13 241.13 406.13 208.25 434.24 159.63 426.81 159.63"/><polygon points="31.15 257.1 24.71 257.1 24.71 337.89 61.68 337.89 61.68 331.46 31.15 331.46 31.15 257.1"/><path d="M239,399.39a20.25,20.25,0,0,1-40.5,0V344.62H192v54.77a26.74,26.74,0,0,0,45.64,18.88,27.16,27.16,0,0,0,7.82-15.88V344.62H239v54.77Z" transform="translate(-76.89 -87.51)"/><path d="M343.71,350.21A33.85,33.85,0,0,1,366.83,359l.67.6,4.82-4.4-.81-.74a41.35,41.35,0,1,0-27.81,71.92,38.63,38.63,0,0,0,27.53-11l.31-.29V388h-6.43v24.55a34.84,34.84,0,1,1-21.4-62.34Z" transform="translate(-76.89 -87.51)"/><path d="M498.26,355.62a41.4,41.4,0,1,0,12.14,29.29A40.1,40.1,0,0,0,498.26,355.62Zm5.61,29.29a34.89,34.89,0,1,1-10.22-24.68A33.85,33.85,0,0,1,503.87,384.91Z" transform="translate(-76.89 -87.51)"/><polygon points="24.71 361.08 44.82 361.08 44.82 436.04 51.29 436.04 51.29 361.08 71.4 361.08 71.4 354.61 24.71 354.61 24.71 361.08"/><polygon points="134.34 393.98 103.08 393.98 103.08 354.61 96.61 354.61 96.61 436.04 103.08 436.04 103.08 400.45 134.34 400.45 134.34 436.04 140.81 436.04 140.81 354.61 134.34 354.61 134.34 393.98"/><rect x="171.98" y="354.61" width="6.47" height="81.43"/><polygon points="255.35 422.53 216.11 354.61 209.62 354.61 209.62 436.04 216.09 436.04 216.09 367.43 255.48 435.55 255.77 436.04 261.81 436.04 261.81 354.61 255.35 354.61 255.35 422.53"/><path d="M409.3,447.74a34.16,34.16,0,0,1,23.32,8.83l.67.6,4.85-4.42-.81-.74a41.67,41.67,0,1,0-28,72.48,39,39,0,0,0,27.75-11.1l.31-.29V485.86H430.9v24.75a35.13,35.13,0,1,1-21.6-62.87Z" transform="translate(-76.89 -87.51)"/><path d="M503.2,482.63a40.62,40.62,0,0,0-16.37-9.81,32.09,32.09,0,0,1-9-5.88,11.37,11.37,0,0,1,16.06-16.11,11.46,11.46,0,0,1,2.7,4.11l.35,1,5.85-2.31-.28-.89a15.21,15.21,0,0,0-4-6.32,17.39,17.39,0,0,0-12.62-5.21,17.78,17.78,0,0,0-12.61,30.36,34.82,34.82,0,0,0,13.76,8,35.47,35.47,0,0,1,11.71,7.61,18.13,18.13,0,1,1-30.87,15l-.14-1.27-6.19,2.25.12.81a24.52,24.52,0,0,0,41.56,13.42,24.44,24.44,0,0,0,0-34.67Z" transform="translate(-76.89 -87.51)"/><path class="cls-1" d="M534.23,148.53c-7-6.2-15.35-8.39-24.42-9.61a255.41,255.41,0,0,0-37.09-2.07c-21.17.26-43.88,2-64.51,8.22,3.73-3.14,7.87-7.38,8.39-12.12,3.6-6.83-2.94-16.95-9.22-20.45-7.39-4.11-16.16-5-23.45-9.41-4.45-2.66-6.17-5.64-8.48-10-1.19-2.27-2.11-4.13-4.72-5.08-5.67-2.07-11.78,3.41-15.91,6.48a124.91,124.91,0,0,0-17.61,15.93c-9.64,10.57-17.81,22.89-22.72,36.38a10,10,0,0,0-.87-1,12.39,12.39,0,0,0-2-1.56,8.62,8.62,0,0,0-11.32,0,12.39,12.39,0,0,0-2,1.56c-.31.31-.6.64-.87,1-4.9-13.5-13.08-25.82-22.72-36.38a124.36,124.36,0,0,0-17.61-15.93C253,91.37,246.88,85.9,241.21,88c-2.61,1-3.53,2.81-4.72,5.08-2.31,4.4-4,7.38-8.48,10-7.29,4.36-16.06,5.3-23.45,9.41-6.28,3.5-12.82,13.62-9.22,20.45.52,4.75,4.66,9,8.39,12.12-20.63-6.26-43.34-8-64.51-8.22a255.49,255.49,0,0,0-37.09,2.07c-9.07,1.22-17.46,3.41-24.42,9.61-1.64,1.46-.62,3.95,1.21,4.58,13.81,4.75,27.6,9.57,41.45,14.22A157.78,157.78,0,0,0,89.26,213c-.83,1.82.55,4.4,2.81,3.66a397.05,397.05,0,0,1,55.1-13.88c9.82-1.73,19.69-3.15,29.6-4.17,7.29-.75,14.74-.9,22-1.85-.52,1-1.07,2-1.68,3.06-2.78,4.75-5.35,9.69-4.68,14.93a11.8,11.8,0,0,0,1.24,7.92c3,5.94,9.9,6.39,15.74,5.44,10.18-1.66,20.46-5.84,29.93-9.79a220.16,220.16,0,0,0,29.36-14.85c5-3,9.64-5.89,14.48-8.45a2.19,2.19,0,0,0,2.06,1,46.11,46.11,0,0,1,10.09.76,2.47,2.47,0,0,0,.9,0,7,7,0,0,0,.52.73,10.18,10.18,0,0,0,9.16,3.28,10.17,10.17,0,0,0,9.16-3.28,7,7,0,0,0,.52-.73,2.47,2.47,0,0,0,.9,0,46.78,46.78,0,0,1,10.09-.76,2.18,2.18,0,0,0,2.06-1c4.84,2.56,9.53,5.44,14.48,8.45a218.39,218.39,0,0,0,29.36,14.85c9.47,3.95,19.75,8.13,29.93,9.79,5.84,1,12.74.5,15.74-5.44a11.81,11.81,0,0,0,1.24-7.92c.67-5.24-1.9-10.19-4.68-14.93-.6-1-1.15-2-1.68-3.06,7.29.95,14.74,1.1,22,1.85,9.92,1,19.79,2.45,29.6,4.17a397.41,397.41,0,0,1,55.1,13.88c2.26.74,3.64-1.84,2.81-3.66a158,158,0,0,0-31.11-45.69c13.85-4.65,27.64-9.47,41.45-14.22C534.85,152.48,535.87,150,534.23,148.53ZM409.76,138.12c-1.52,2.23-3.93,4-6,5.64-13.34,10.56-30.41,15.33-46.57,19.71-11.35,3.07-24.14,6.64-34.42,13.25.81-1,1.66-2,2.5-3,7-5,14.76-8.62,22.54-12.61,11.49-5.89,23.11-11.59,34.41-17.83a0,0,0,0,0,0,0C369.4,148.83,356.88,155,344.27,161c-4.14,2-8.59,3.81-12.88,6A280.18,280.18,0,0,1,357.17,144c8.9-7.18,18.35-14.43,29.5-17.69,6-1.76,12.88-2.54,19-.85C411.32,127,413.25,133,409.76,138.12Zm-9.91,26.3c5.43,3.48,4.47,10.12,4.65,15.71A42.74,42.74,0,0,0,407,194.18a1.6,1.6,0,0,0,.63,1.53c.17.4.34.79.53,1.18,1.44,2.92,3,5.62,4.46,8.35-6.91-5.37-17.2-8.79-22.86-10.09-12-2.75-24.3-4.19-36.41-6.15-10.12-1.64-20.39-3.82-30.65-4.9,3.32-.35,6.65-.88,10-.92,5.87-.08,11.76.06,17.63.22,13,.34,25.87,1.46,38.38,5.16.6.18.84-.72.26-.93-12.5-4.51-25.45-6.42-38.64-7.52-3.31-.28-7-.76-10.81-1.13a243.25,243.25,0,0,1,45.41-.59c.5.05.48-.71,0-.77-16.33-2.14-33.06-2.89-49.49-1.08q1.08-.53,2.19-1c11.86-2.27,23.6-4.73,35.62-6.27.24,0,.25-.4,0-.39-8.09.46-16.31,1.07-24.44,2.15,9.61-3.33,19.36-6.24,28.93-9.65a111.68,111.68,0,0,1,11.71.32C392.9,162,396.89,162.52,399.85,164.42Zm-195.53,31.3a1.58,1.58,0,0,0,.63-1.53,42.79,42.79,0,0,0,2.54-14.05c.18-5.59-.78-12.23,4.65-15.71,3-1.9,7-2.43,10.37-2.74a111.61,111.61,0,0,1,11.71-.32c9.57,3.42,19.32,6.33,28.93,9.65-8.13-1.08-16.36-1.7-24.44-2.15-.25,0-.24.36,0,.39,12,1.54,23.76,4,35.62,6.27l2.19,1c-16.43-1.81-33.16-1.07-49.49,1.08-.48.06-.5.82,0,.77a243.25,243.25,0,0,1,45.41.59c-3.81.37-7.5.85-10.81,1.13-13.19,1.11-26.13,3-38.64,7.52-.58.21-.35,1.11.26.93,12.51-3.7,25.39-4.82,38.38-5.16,5.87-.15,11.76-.29,17.63-.22,3.34,0,6.67.58,10,.92-10.26,1.08-20.52,3.26-30.65,4.9-12.11,2-24.44,3.4-36.41,6.15-5.66,1.3-15.95,4.72-22.86,10.09,1.44-2.73,3-5.44,4.46-8.35C204,196.51,204.14,196.12,204.32,195.72Zm97.34-3c0,.15.11.3.17.44l-.25-.25A1.54,1.54,0,0,1,301.66,192.76Zm1.34-2.87c-1.18-6-.06-12.73.13-18.63l.15-4.59C303.87,174.45,304.45,182.2,303,189.89Zm1.05,4.27,0-.06c3.95-15-.74-30-.22-45.19a9.28,9.28,0,0,1,2.14-1,9.28,9.28,0,0,1,2.14,1c.52,15.15-4.16,30.23-.22,45.19l0,.06a9.13,9.13,0,0,1-1.95.32A9.23,9.23,0,0,1,304.05,194.16Zm4.83-22.9c.18,5.89,1.31,12.65.13,18.63-1.46-7.69-.88-15.44-.27-23.22C308.78,168.2,308.83,169.73,308.88,171.26Zm1.46,21.5.09.2c-.08.09-.17.17-.25.25C310.23,193.05,310.29,192.91,310.34,192.76Zm25.17-72.12a122,122,0,0,1,13.22-14.24c4.26-3.91,9.38-9.33,14.77-11.55,8-3.28,8.49,3.47,12.83,7.67,3.34,3.24,7.71,5.25,12,6.83,8.66,3.19,20.23,6.67,23.59,14.51-4.47-2.83-11.11-3.24-15.76-3-12,.54-22.91,6.45-32.47,13.31-16.23,11.65-32.41,24.12-44,40.38-.51.45-1,.92-1.48,1.4,0-1.8.06-3.59.07-5.39,0-2.85.19-6.32.09-9.84,3.72-12.84,17-23.44,25.76-32.66.09-.09,0-.21-.14-.14a126.07,126.07,0,0,0-19.57,19.82,55.25,55.25,0,0,0-6.35,8.76q-.06-.56-.15-1.11c3.92-9.73,12.08-19,18.38-26.38,7.42-8.74,16-16.09,24-24.31a.05.05,0,0,0-.06-.08c-10.52,6.84-19.47,16.83-27.37,26.47-5.28,6.44-11.55,13.7-15.45,21.59-.08-.3-.17-.59-.26-.88C322.29,140.81,328,130.22,335.51,120.64Zm-23.06,49.91q0,7.09-.44,14.19a1.86,1.86,0,0,0-.34.06c.09-3-.1-6-.18-9.06q-.28-11.78-.66-23.56a12.41,12.41,0,0,1,.52,1.25C313.2,158.56,312.45,165.16,312.45,170.55Zm-11.81-17.11c.17-.46.34-.87.52-1.25q-.39,11.77-.66,23.56c-.07,3-.27,6.06-.18,9.06a1.21,1.21,0,0,0-.34-.06c-.28-4.72-.43-9.46-.44-14.19C299.55,165.16,298.8,158.56,300.64,153.44Zm-77-44.08c4.32-1.59,8.68-3.6,12-6.83,4.34-4.2,4.85-11,12.83-7.67,5.39,2.21,10.51,7.63,14.77,11.55a122,122,0,0,1,13.22,14.24c7.56,9.58,13.22,20.17,18.42,31.15-.09.29-.19.58-.26.88-3.9-7.89-10.18-15.15-15.45-21.59-7.9-9.64-16.85-19.63-27.37-26.47a.05.05,0,0,0-.06.08c7.91,8.23,16.54,15.57,24,24.31,6.3,7.42,14.46,16.65,18.38,26.38q-.09.56-.15,1.11a54.79,54.79,0,0,0-6.35-8.76A126.07,126.07,0,0,0,268,127.92c-.1-.07-.23,0-.14.14,8.79,9.22,22,19.82,25.75,32.66-.1,3.52.09,7,.09,9.84,0,1.79,0,3.59.07,5.39-.48-.48-1-.95-1.48-1.4-11.62-16.26-27.8-28.73-44-40.38-9.56-6.86-20.45-12.77-32.47-13.31-4.66-.21-11.29.2-15.76,3C203.42,116,215,112.55,223.65,109.36Zm-21.41,28.76c-3.49-5.1-1.56-11.11,4.06-12.65,6.15-1.68,13-.91,19,.85,11.14,3.26,20.6,10.52,29.5,17.69a280.18,280.18,0,0,1,25.78,22.93c-4.29-2.15-8.74-4-12.88-6-12.61-6-25.13-12.17-37.91-17.75,0,0,0,0,0,0,11.3,6.24,22.92,11.94,34.41,17.83,7.78,4,15.55,7.63,22.54,12.61.84,1,1.69,2,2.5,3-10.28-6.61-23.07-10.17-34.42-13.25-16.16-4.38-33.23-9.15-46.57-19.71C206.17,142.11,203.76,140.35,202.24,138.12Zm-55,59.29A420.79,420.79,0,0,0,96.33,210.1a159.25,159.25,0,0,1,31.87-41.95,3.08,3.08,0,0,0-1.35-5.1c-13.71-4.64-27.49-9.07-41.26-13.55,8.06-4.86,18.31-5.42,27.5-6.2a307.7,307.7,0,0,1,32-1.12c22.23.43,43.59,4.72,65.44,7.93q2.79,1.84,5.71,3.45A427.34,427.34,0,0,0,141.88,149a.12.12,0,0,0,0,.24,536.33,536.33,0,0,1,79.68,8.29,33.66,33.66,0,0,0-6.23.85c-19.37-4.27-40.94-4.18-60.32-1-.19,0-.14.34,0,.33,19-.86,36.91.3,55.51,2.38a13.47,13.47,0,0,0-6.75,7.21c-1.75,4.51-.57,9.59-.74,14.28A32.65,32.65,0,0,1,201,191.94C183.56,190.48,164.27,194.32,147.24,197.41Zm109.9,7.73c-14.72,8.15-31.83,16.73-48.55,19.72-5.27.94-6.56.7-9.75-3.6q-5.07-3.72-1-9c.83-1,1.65-2,2.48-3,3.61-3.59,8.71-6.06,13.45-7.76,7.45-2.68,15.38-3.86,23.16-5.12,12.92-2.1,26.28-3.57,39.38-5.84a63.6,63.6,0,0,0-5.66,3c-5.59,3.16-11.27,6.11-17.09,8.81a230.12,230.12,0,0,1-21.46,8.66c-6.66,2.31-14.27,5.6-21.35,4.88-.47,0-.45.67,0,.73,11.76,1.55,26.43-5.51,37.25-9.77q7.8-3.07,15.38-6.68c2.75-1.31,5.45-2.82,8.19-4.23C266.58,199.22,261.78,202.57,257.14,205.14Zm37.6-13Zm22.51,0Zm95.92,29.1c-3.19,4.29-4.48,4.54-9.75,3.6-16.72-3-33.83-11.58-48.55-19.72-4.64-2.57-9.45-5.92-14.41-9.17,2.74,1.41,5.44,2.92,8.19,4.23q7.58,3.6,15.38,6.68c10.83,4.26,25.49,11.32,37.25,9.77.45-.06.47-.77,0-.73-7.07.73-14.69-2.57-21.35-4.88a230.12,230.12,0,0,1-21.46-8.66c-5.82-2.7-11.51-5.66-17.09-8.81-1.93-1.09-3.76-2.17-5.66-3,13.09,2.27,26.46,3.75,39.38,5.84,7.79,1.26,15.71,2.44,23.16,5.12,4.73,1.7,9.84,4.17,13.45,7.76.83,1,1.65,2,2.48,3Q418.24,217.56,413.17,221.27Zm72-58.22a3.09,3.09,0,0,0-1.35,5.1,159.25,159.25,0,0,1,31.87,41.95,419.86,419.86,0,0,0-50.91-12.69c-17-3.1-36.32-6.93-53.76-5.48a32.87,32.87,0,0,1-2.09-10.38c-.17-4.69,1-9.77-.74-14.28a13.47,13.47,0,0,0-6.75-7.21c18.6-2.08,36.55-3.23,55.51-2.38.19,0,.24-.3,0-.33-19.38-3.18-40.95-3.28-60.32,1a34.53,34.53,0,0,0-6.23-.85,539.14,539.14,0,0,1,79.68-8.29.12.12,0,1,0,0-.24,426.36,426.36,0,0,0-74.35,4.59c1.95-1.06,3.85-2.22,5.71-3.45,21.84-3.21,43.21-7.5,65.44-7.93a307.8,307.8,0,0,1,32,1.12c9.2.78,19.44,1.34,27.5,6.2C512.63,154,498.85,158.41,485.14,163.05Z" transform="translate(-76.89 -87.51)"/><path class="cls-2" d="M409.76,138.14c-1.52,2.23-3.93,4-6,5.64-13.34,10.56-30.41,15.33-46.57,19.71-11.35,3.07-24.14,6.64-34.42,13.25.81-1,1.66-2,2.5-3,7-5,14.76-8.62,22.54-12.61,11.49-5.89,23.11-11.59,34.41-17.83a0,0,0,0,0,0,0c-12.78,5.58-25.3,11.79-37.91,17.75-4.14,2-8.59,3.81-12.88,6a280.18,280.18,0,0,1,25.78-22.93c8.9-7.18,18.35-14.43,29.5-17.69,6-1.76,12.88-2.54,19-.85C411.32,127,413.25,133,409.76,138.14Z" transform="translate(-76.89 -87.51)"/><path class="cls-3" d="M399.85,164.44c5.43,3.48,4.47,10.12,4.65,15.71a42.74,42.74,0,0,0,2.54,14,1.6,1.6,0,0,0,.63,1.53c.17.4.34.79.53,1.18,1.44,2.92,3,5.62,4.46,8.35-6.91-5.37-17.2-8.79-22.86-10.09-12-2.75-24.3-4.19-36.41-6.15-10.12-1.64-20.39-3.82-30.65-4.9,3.32-.35,6.65-.88,10-.92,5.87-.08,11.76.06,17.63.22,13,.34,25.87,1.46,38.38,5.16.6.18.84-.72.26-.93-12.5-4.51-25.45-6.42-38.64-7.52-3.31-.28-7-.76-10.81-1.13a243.25,243.25,0,0,1,45.41-.59c.5.05.48-.71,0-.77-16.33-2.14-33.06-2.89-49.49-1.08q1.08-.52,2.19-1c11.86-2.27,23.6-4.73,35.62-6.27.24,0,.25-.4,0-.39-8.09.46-16.31,1.07-24.44,2.15,9.61-3.33,19.36-6.24,28.93-9.65a111.68,111.68,0,0,1,11.71.32C392.9,162,396.89,162.54,399.85,164.44Z" transform="translate(-76.89 -87.51)"/><path class="cls-4" d="M204.32,195.74a1.58,1.58,0,0,0,.63-1.53,42.79,42.79,0,0,0,2.54-14.05c.18-5.59-.78-12.23,4.65-15.71,3-1.9,7-2.43,10.37-2.74a111.61,111.61,0,0,1,11.71-.32c9.57,3.42,19.32,6.33,28.93,9.65-8.13-1.08-16.36-1.7-24.44-2.15-.25,0-.24.36,0,.39,12,1.54,23.76,4,35.62,6.27.73.33,1.46.68,2.19,1-16.43-1.81-33.16-1.07-49.49,1.08-.48.06-.5.82,0,.77a243.25,243.25,0,0,1,45.41.59c-3.81.37-7.5.85-10.81,1.13-13.19,1.11-26.13,3-38.64,7.52-.58.21-.35,1.11.26.93,12.51-3.7,25.39-4.82,38.38-5.16,5.87-.15,11.76-.29,17.63-.22,3.34,0,6.67.58,10,.92-10.26,1.08-20.52,3.26-30.65,4.9-12.11,2-24.44,3.4-36.41,6.15-5.66,1.3-15.95,4.72-22.86,10.09,1.44-2.73,3-5.44,4.46-8.35C204,196.53,204.14,196.14,204.32,195.74Z" transform="translate(-76.89 -87.51)"/><path class="cls-5" d="M301.66,192.78c0,.15.11.3.17.44l-.25-.25A1.54,1.54,0,0,1,301.66,192.78Z" transform="translate(-76.89 -87.51)"/><path class="cls-6" d="M303,189.91c-1.18-6-.06-12.73.13-18.63l.15-4.59C303.87,174.47,304.45,182.22,303,189.91Z" transform="translate(-76.89 -87.51)"/><path class="cls-7" d="M304.05,194.18l0-.06c3.95-15-.74-30-.22-45.19a9.28,9.28,0,0,1,2.14-1,9.28,9.28,0,0,1,2.14,1c.52,15.15-4.16,30.23-.22,45.19l0,.06a9.13,9.13,0,0,1-1.95.32A9.23,9.23,0,0,1,304.05,194.18Z" transform="translate(-76.89 -87.51)"/><path class="cls-6" d="M308.88,171.28c.18,5.89,1.31,12.65.13,18.63-1.46-7.69-.88-15.44-.27-23.22C308.78,168.22,308.83,169.75,308.88,171.28Z" transform="translate(-76.89 -87.51)"/><path class="cls-8" d="M310.34,192.78l.09.2c-.08.09-.17.17-.25.25C310.23,193.07,310.29,192.93,310.34,192.78Z" transform="translate(-76.89 -87.51)"/><path class="cls-9" d="M335.51,120.66a122,122,0,0,1,13.22-14.24c4.26-3.91,9.38-9.33,14.77-11.55,8-3.28,8.49,3.47,12.83,7.67,3.34,3.24,7.71,5.25,12,6.83,8.66,3.19,20.23,6.67,23.59,14.51-4.47-2.83-11.11-3.24-15.76-3-12,.54-22.91,6.45-32.47,13.31-16.23,11.65-32.41,24.12-44,40.38-.51.45-1,.92-1.48,1.4,0-1.8.06-3.59.07-5.39,0-2.85.19-6.32.09-9.84,3.72-12.84,17-23.44,25.76-32.66.09-.09,0-.21-.14-.14a126.07,126.07,0,0,0-19.57,19.82,55.25,55.25,0,0,0-6.35,8.76q-.06-.56-.15-1.11c3.92-9.73,12.08-19,18.38-26.38,7.42-8.74,16-16.09,24-24.31a.05.05,0,0,0-.06-.08c-10.52,6.84-19.47,16.83-27.37,26.47-5.28,6.44-11.55,13.7-15.45,21.59-.08-.3-.17-.59-.26-.88C322.29,140.83,328,130.24,335.51,120.66Z" transform="translate(-76.89 -87.51)"/><path class="cls-10" d="M312.45,170.57q0,7.1-.44,14.19a1.86,1.86,0,0,0-.34.06c.09-3-.1-6-.18-9.06q-.28-11.77-.66-23.56a12.41,12.41,0,0,1,.52,1.25C313.2,158.58,312.45,165.18,312.45,170.57Z" transform="translate(-76.89 -87.51)"/><path class="cls-11" d="M300.64,153.46c.17-.46.34-.87.52-1.25q-.39,11.78-.66,23.56c-.07,3-.27,6.06-.18,9.06a1.21,1.21,0,0,0-.34-.06c-.28-4.72-.43-9.46-.44-14.19C299.55,165.18,298.8,158.58,300.64,153.46Z" transform="translate(-76.89 -87.51)"/><path class="cls-12" d="M223.65,109.38c4.32-1.59,8.68-3.6,12-6.83,4.34-4.2,4.85-11,12.83-7.67,5.39,2.21,10.51,7.63,14.77,11.55a122,122,0,0,1,13.22,14.24c7.56,9.58,13.22,20.17,18.42,31.15-.09.29-.19.58-.26.88-3.9-7.89-10.18-15.15-15.45-21.59-7.9-9.64-16.85-19.63-27.37-26.47a.05.05,0,0,0-.06.08c7.91,8.23,16.54,15.57,24,24.31,6.3,7.42,14.46,16.65,18.38,26.38q-.09.56-.15,1.11a54.79,54.79,0,0,0-6.35-8.76A126.07,126.07,0,0,0,268,127.94c-.1-.07-.23,0-.14.14,8.79,9.22,22,19.82,25.75,32.66-.1,3.52.09,7,.09,9.84,0,1.79,0,3.59.07,5.39-.48-.48-1-.95-1.48-1.4-11.62-16.26-27.8-28.73-44-40.38-9.56-6.86-20.45-12.77-32.47-13.31-4.66-.21-11.29.2-15.76,3C203.42,116.05,215,112.57,223.65,109.38Z" transform="translate(-76.89 -87.51)"/><path class="cls-13" d="M202.24,138.14c-3.49-5.1-1.56-11.11,4.06-12.65,6.15-1.68,13-.91,19,.85,11.14,3.26,20.6,10.52,29.5,17.69A280.18,280.18,0,0,1,280.61,167c-4.29-2.15-8.74-4-12.88-6-12.61-6-25.13-12.17-37.91-17.75,0,0,0,0,0,0,11.3,6.24,22.92,11.94,34.41,17.83,7.78,4,15.55,7.63,22.54,12.61.84,1,1.69,2,2.5,3-10.28-6.61-23.07-10.17-34.42-13.25-16.16-4.38-33.23-9.15-46.57-19.71C206.17,142.13,203.76,140.37,202.24,138.14Z" transform="translate(-76.89 -87.51)"/><path class="cls-14" d="M147.24,197.43a420.79,420.79,0,0,0-50.91,12.69,159.25,159.25,0,0,1,31.87-42,3.08,3.08,0,0,0-1.35-5.1c-13.71-4.64-27.49-9.07-41.26-13.55,8.06-4.86,18.31-5.42,27.5-6.2a307.7,307.7,0,0,1,32-1.12c22.23.43,43.59,4.72,65.44,7.93q2.79,1.85,5.71,3.45A427.34,427.34,0,0,0,141.88,149a.12.12,0,0,0,0,.24,536.33,536.33,0,0,1,79.68,8.29,33.66,33.66,0,0,0-6.23.85c-19.37-4.27-40.94-4.18-60.32-1-.19,0-.14.34,0,.33,19-.86,36.91.3,55.51,2.38a13.47,13.47,0,0,0-6.75,7.21c-1.75,4.51-.57,9.59-.74,14.28A32.65,32.65,0,0,1,201,192C183.56,190.5,164.27,194.34,147.24,197.43Z" transform="translate(-76.89 -87.51)"/><path class="cls-15" d="M257.14,205.16c-14.72,8.15-31.83,16.73-48.55,19.72-5.27.94-6.56.7-9.75-3.6q-5.07-3.72-1-9c.83-1,1.65-2,2.48-3,3.61-3.59,8.71-6.06,13.45-7.76,7.45-2.68,15.38-3.86,23.16-5.12,12.92-2.1,26.28-3.57,39.38-5.84a63.6,63.6,0,0,0-5.66,3c-5.59,3.16-11.27,6.11-17.09,8.81a230.12,230.12,0,0,1-21.46,8.66c-6.66,2.31-14.27,5.6-21.35,4.88-.47-.05-.45.67,0,.73,11.76,1.55,26.43-5.51,37.25-9.77q7.8-3.08,15.38-6.68c2.75-1.31,5.45-2.82,8.19-4.23C266.58,199.24,261.78,202.59,257.14,205.16Z" transform="translate(-76.89 -87.51)"/><path class="cls-16" d="M294.74,192.19Z" transform="translate(-76.89 -87.51)"/><path class="cls-17" d="M317.25,192.19Z" transform="translate(-76.89 -87.51)"/><path class="cls-18" d="M413.17,221.29c-3.19,4.29-4.48,4.54-9.75,3.6-16.72-3-33.83-11.58-48.55-19.72-4.64-2.57-9.45-5.92-14.41-9.17,2.74,1.41,5.44,2.92,8.19,4.23q7.58,3.6,15.38,6.68c10.83,4.26,25.49,11.32,37.25,9.77.45-.06.47-.77,0-.73-7.07.73-14.69-2.57-21.35-4.88a230.12,230.12,0,0,1-21.46-8.66c-5.82-2.7-11.51-5.66-17.09-8.81-1.93-1.09-3.76-2.17-5.66-3,13.09,2.27,26.46,3.75,39.38,5.84,7.79,1.26,15.71,2.44,23.16,5.12,4.73,1.7,9.84,4.17,13.45,7.76.83,1,1.65,2,2.48,3Q418.24,217.58,413.17,221.29Z" transform="translate(-76.89 -87.51)"/><path class="cls-19" d="M485.14,163.07a3.09,3.09,0,0,0-1.35,5.1,159.25,159.25,0,0,1,31.87,42,419.86,419.86,0,0,0-50.91-12.69c-17-3.1-36.32-6.93-53.76-5.48a32.87,32.87,0,0,1-2.09-10.38c-.17-4.69,1-9.77-.74-14.28a13.47,13.47,0,0,0-6.75-7.21C420,158,438,156.85,456.92,157.7c.19,0,.24-.3,0-.33-19.38-3.18-40.95-3.28-60.32,1a34.53,34.53,0,0,0-6.23-.85,539.14,539.14,0,0,1,79.68-8.29.12.12,0,1,0,0-.24,426.36,426.36,0,0,0-74.35,4.59c1.95-1.06,3.85-2.22,5.71-3.45,21.84-3.21,43.21-7.5,65.44-7.93a307.8,307.8,0,0,1,32,1.12c9.2.78,19.44,1.34,27.5,6.2C512.63,154,498.85,158.43,485.14,163.07Z" transform="translate(-76.89 -87.51)"/></svg>