<?xml version="1.0" encoding="utf-8"?>
<!-- Generator: Adobe Illustrator 25.0.0, SVG Export Plug-In . SVG Version: 6.00 Build 0)  -->
<svg version="1.1" id="Layer_1" xmlns="http://www.w3.org/2000/svg" xmlns:xlink="http://www.w3.org/1999/xlink" x="0px" y="0px"
	 viewBox="0 0 612 612" style="enable-background:new 0 0 612 612;" xml:space="preserve">
<g>
	<g>
		<path d="M123.61,247.15l-22-0.01v81.5h6.47v-27.58h12.52c7.4,0,13.8-2.66,19.04-7.9c5.24-5.24,7.89-11.66,7.89-19.09
			c0-7.4-2.66-13.8-7.89-19.04C135.25,250.66,129.86,248.01,123.61,247.15z M108.08,253.67h12.52c5.59,0,10.45,2.01,14.42,5.97
			c3.98,3.96,5.99,8.82,5.99,14.45s-2.02,10.5-6,14.47c-3.98,3.98-8.83,5.99-14.42,5.99h-12.52V253.67z"/>
		<path d="M219.95,274.08c0-7.4-2.66-13.8-7.9-19.04c-4.38-4.38-9.77-7.03-16.02-7.89l-22-0.01v81.5h6.47v-27.58h12.51
			c0.28,0,0.55-0.01,0.81-0.02l17.72,27.59h7.9l-18.59-28.66c4.16-1.25,7.92-3.53,11.19-6.81
			C217.3,287.93,219.95,281.51,219.95,274.08z M213.43,274.08c0,5.63-2.02,10.5-5.99,14.47c-3.98,3.98-8.83,5.99-14.42,5.99H180.5
			v-40.88h12.51c5.59,0,10.45,2.01,14.42,5.97C211.42,263.59,213.43,268.45,213.43,274.08z"/>
		<polygon points="246.46,328.64 288.2,328.64 288.2,322.17 252.93,322.17 252.93,291.13 288.2,291.13 288.2,284.66 252.93,284.66 
			252.93,253.62 288.2,253.62 288.2,247.14 246.46,247.14 		"/>
		<polygon points="313.21,253.62 333.34,253.62 333.34,328.64 339.81,328.64 339.81,253.62 359.93,253.62 359.93,247.14 
			313.21,247.14 		"/>
		<polygon points="381.22,253.62 401.34,253.62 401.34,328.64 407.81,328.64 407.81,253.62 427.94,253.62 427.94,247.14 
			381.22,247.14 		"/>
		<polygon points="503.7,247.14 479.78,288.53 455.92,247.14 448.49,247.14 476.55,295.76 476.55,328.64 483.02,328.64 
			483.02,295.76 511.13,247.14 		"/>
	</g>
	<g>
		<polygon points="108.04,344.61 101.6,344.61 101.6,425.4 138.57,425.4 138.57,418.97 108.04,418.97 		"/>
		<path d="M238.97,399.39c0,5.54-1.99,10.35-5.91,14.29c-3.92,3.94-8.74,5.94-14.31,5.94c-5.58,0-10.4-2-14.34-5.94
			c-3.94-3.94-5.94-8.75-5.94-14.29v-54.77H192v54.77c0,7.34,2.63,13.69,7.83,18.88c5.19,5.2,11.56,7.83,18.93,7.83
			c7.34,0,13.69-2.63,18.88-7.83c4.34-4.34,6.97-9.68,7.82-15.88l0.01-57.77h-6.48V399.39z"/>
		<path d="M343.71,350.21c8.8,0,16.58,2.95,23.12,8.76l0.67,0.6l4.82-4.4l-0.81-0.74c-7.83-7.13-17.19-10.75-27.81-10.75
			c-11.38,0-21.22,4.08-29.25,12.11c-8.02,8.04-12.08,17.87-12.08,29.22c0,11.38,4.07,21.22,12.08,29.25
			c8.02,8.02,17.86,12.09,29.25,12.09c10.62,0,19.88-3.71,27.53-11.02l0.31-0.29v-27.04h-6.43v24.55
			c-6.17,4.85-13.37,7.31-21.41,7.31c-9.56,0-17.83-3.43-24.6-10.19c-6.77-6.77-10.2-15.06-10.2-24.66c0-9.56,3.43-17.84,10.2-24.6
			C325.87,353.64,334.15,350.21,343.71,350.21z"/>
		<path d="M498.26,355.62c-8.05-8.05-17.91-12.14-29.29-12.14s-21.24,4.08-29.29,12.14c-8.05,8.05-12.14,17.91-12.14,29.29
			s4.08,21.24,12.14,29.29c8.05,8.05,17.91,12.14,29.29,12.14s21.24-4.08,29.29-12.14c8.05-8.05,12.14-17.91,12.14-29.29
			S506.31,363.67,498.26,355.62z M503.87,384.91c0,9.59-3.44,17.91-10.22,24.7c-6.79,6.8-15.09,10.24-24.68,10.24
			c-9.59,0-17.9-3.45-24.68-10.24c-6.78-6.8-10.22-15.11-10.22-24.7c0-9.59,3.44-17.89,10.22-24.68
			c6.78-6.78,15.08-10.22,24.68-10.22c9.59,0,17.89,3.44,24.68,10.22C500.43,367.01,503.87,375.32,503.87,384.91z"/>
	</g>
	<g>
		<polygon points="101.6,448.59 121.71,448.59 121.71,523.55 128.18,523.55 128.18,448.59 148.29,448.59 148.29,442.12 
			101.6,442.12 		"/>
		<polygon points="211.23,481.49 179.97,481.49 179.97,442.12 173.5,442.12 173.5,523.55 179.97,523.55 179.97,487.96 
			211.23,487.96 211.23,523.55 217.7,523.55 217.7,442.12 211.23,442.12 		"/>
		<rect x="248.87" y="442.12" width="6.47" height="81.43"/>
		<polygon points="332.24,510.04 293,442.12 286.51,442.12 286.51,523.55 292.98,523.55 292.98,454.94 332.37,523.06 332.66,523.55 
			338.7,523.55 338.7,442.12 332.24,442.12 		"/>
		<path d="M409.3,447.74c8.87,0,16.72,2.97,23.32,8.83l0.67,0.6l4.85-4.42l-0.81-0.74c-7.9-7.19-17.33-10.84-28.03-10.84
			c-11.48,0-21.39,4.11-29.48,12.21c-8.08,8.1-12.18,18.01-12.18,29.45c0,11.48,4.1,21.39,12.18,29.48
			c8.08,8.08,18,12.18,29.48,12.18c10.71,0,20.04-3.74,27.75-11.1l0.31-0.29v-27.24h-6.46v24.75c-6.22,4.9-13.49,7.38-21.59,7.38
			c-9.64,0-17.99-3.46-24.81-10.28c-6.82-6.83-10.28-15.19-10.28-24.86c0-9.64,3.46-17.99,10.28-24.81
			C391.31,451.2,399.66,447.74,409.3,447.74z"/>
		<path d="M503.2,482.63c-4.41-4.41-9.92-7.71-16.37-9.81c-3.82-1.78-6.84-3.76-8.99-5.88c-2.24-2.24-3.33-4.87-3.33-8.03
			c0-3.19,1.09-5.83,3.33-8.05c2.24-2.23,4.87-3.31,8.03-3.31c3.17,0,5.79,1.08,8.03,3.28c1.25,1.25,2.15,2.63,2.7,4.11l0.35,0.96
			l5.85-2.31l-0.28-0.89c-0.74-2.33-2.1-4.46-4.02-6.32c-3.49-3.45-7.73-5.21-12.62-5.21c-4.92,0-9.17,1.76-12.62,5.24
			c-3.45,3.47-5.2,7.68-5.2,12.5c0,4.92,1.75,9.17,5.21,12.62c3.37,3.37,8,6.05,13.76,7.98c4.61,1.89,8.54,4.45,11.71,7.61
			c3.53,3.53,5.32,7.84,5.32,12.8c0,5-1.79,9.32-5.32,12.84c-3.53,3.53-7.85,5.32-12.85,5.32c-4.96,0-9.27-1.79-12.8-5.32
			c-3.03-3.03-4.79-6.62-5.22-10.67l-0.14-1.27l-6.19,2.25l0.12,0.81c0.76,5.06,3.07,9.56,6.88,13.37
			c4.77,4.81,10.61,7.25,17.34,7.25c6.73,0,12.56-2.42,17.34-7.2c4.77-4.77,7.2-10.62,7.2-17.39
			C510.4,493.18,507.97,487.36,503.2,482.63z"/>
	</g>
	<path id="XMLID_179_" d="M534.23,148.53c-6.95-6.2-15.35-8.39-24.42-9.61c-12.27-1.65-24.71-2.22-37.09-2.07
		c-21.17,0.26-43.88,1.96-64.51,8.22c3.73-3.14,7.87-7.38,8.39-12.12c3.6-6.83-2.94-16.95-9.22-20.45
		c-7.39-4.11-16.16-5.05-23.45-9.41c-4.45-2.66-6.17-5.64-8.48-10.04c-1.19-2.27-2.11-4.13-4.72-5.08
		c-5.67-2.07-11.78,3.41-15.91,6.48c-6.36,4.74-12.26,10.07-17.61,15.93c-9.64,10.57-17.81,22.89-22.72,36.38
		c-0.27-0.34-0.56-0.67-0.87-0.97c-0.56-0.55-1.24-1.08-1.99-1.56c-1.36-1.82-3.45-2.36-5.66-2.12c-2.2-0.24-4.29,0.3-5.66,2.12
		c-0.75,0.48-1.43,1.01-1.99,1.56c-0.31,0.31-0.6,0.64-0.87,0.97c-4.9-13.5-13.08-25.82-22.72-36.38
		c-5.34-5.86-11.25-11.19-17.61-15.93c-4.13-3.08-10.24-8.55-15.91-6.48c-2.61,0.95-3.53,2.81-4.72,5.08
		c-2.31,4.4-4.03,7.38-8.48,10.04c-7.29,4.36-16.06,5.3-23.45,9.41c-6.28,3.5-12.82,13.62-9.22,20.45
		c0.52,4.75,4.66,8.98,8.39,12.12c-20.63-6.26-43.34-7.96-64.51-8.22c-12.38-0.15-24.81,0.42-37.09,2.07
		c-9.07,1.22-17.46,3.41-24.42,9.61c-1.64,1.46-0.62,3.95,1.21,4.58c13.81,4.75,27.6,9.57,41.45,14.22
		c-13.08,13.35-23.34,28.58-31.11,45.69c-0.83,1.82,0.55,4.4,2.81,3.66c18.03-5.92,36.4-10.59,55.1-13.88
		c9.82-1.73,19.69-3.15,29.6-4.17c7.29-0.75,14.74-0.9,22.03-1.85c-0.52,1.02-1.07,2.04-1.68,3.06c-2.78,4.75-5.35,9.69-4.68,14.93
		c-0.51,2.43-0.2,5.08,1.24,7.92c3,5.94,9.9,6.39,15.74,5.44c10.18-1.66,20.46-5.84,29.93-9.79c10.13-4.23,19.98-9.16,29.36-14.85
		c4.95-3.01,9.64-5.89,14.48-8.45c0.37,0.61,1.05,1.03,2.06,1c3.4-0.1,6.75,0.12,10.09,0.76c0.32,0.06,0.62,0.05,0.9,0
		c0.16,0.25,0.32,0.49,0.52,0.73c2.25,2.68,5.81,3.71,9.16,3.28c3.36,0.43,6.92-0.6,9.16-3.28c0.2-0.24,0.36-0.48,0.52-0.73
		c0.28,0.05,0.58,0.06,0.9,0c3.35-0.63,6.69-0.86,10.09-0.76c1.02,0.03,1.69-0.39,2.06-1c4.84,2.56,9.53,5.44,14.48,8.45
		c9.38,5.7,19.24,10.63,29.36,14.85c9.47,3.95,19.75,8.13,29.93,9.79c5.84,0.96,12.74,0.5,15.74-5.44c1.44-2.85,1.75-5.49,1.24-7.92
		c0.67-5.24-1.9-10.19-4.68-14.93c-0.6-1.03-1.15-2.04-1.68-3.06c7.29,0.95,14.74,1.1,22.03,1.85c9.92,1.02,19.79,2.45,29.6,4.17
		c18.7,3.29,37.06,7.96,55.1,13.88c2.26,0.74,3.64-1.84,2.81-3.66c-7.78-17.11-18.03-32.34-31.11-45.69
		c13.85-4.65,27.64-9.47,41.45-14.22C534.85,152.48,535.87,149.99,534.23,148.53z M409.76,138.12c-1.52,2.23-3.93,3.98-6.02,5.64
		c-13.34,10.56-30.41,15.33-46.57,19.71c-11.35,3.07-24.14,6.64-34.42,13.25c0.81-1.01,1.66-2,2.5-2.99
		c6.99-4.98,14.76-8.62,22.54-12.61c11.49-5.89,23.11-11.59,34.41-17.83c0.03-0.02,0-0.05-0.02-0.04
		c-12.78,5.58-25.3,11.79-37.91,17.75c-4.14,1.96-8.59,3.81-12.88,5.96c8.01-8.29,16.93-15.79,25.78-22.93
		c8.9-7.18,18.35-14.43,29.5-17.69c6.02-1.76,12.88-2.54,19.03-0.85C411.32,127.01,413.25,133.02,409.76,138.12z M399.85,164.42
		c5.43,3.48,4.47,10.12,4.65,15.71c0.15,4.85,0.83,9.57,2.54,14.05c-0.06,0.59,0.12,1.17,0.63,1.53c0.17,0.4,0.34,0.79,0.53,1.18
		c1.44,2.92,3.02,5.62,4.46,8.35c-6.91-5.37-17.2-8.79-22.86-10.09c-11.96-2.75-24.3-4.19-36.41-6.15
		c-10.12-1.64-20.39-3.82-30.65-4.9c3.32-0.35,6.65-0.88,9.99-0.92c5.87-0.08,11.76,0.06,17.63,0.22
		c12.99,0.34,25.87,1.46,38.38,5.16c0.6,0.18,0.84-0.72,0.26-0.93c-12.5-4.51-25.45-6.42-38.64-7.52c-3.31-0.28-7-0.76-10.81-1.13
		c15.1-1.45,30.11-1.97,45.41-0.59c0.5,0.05,0.48-0.71,0-0.77c-16.33-2.14-33.06-2.89-49.49-1.08c0.72-0.35,1.45-0.69,2.19-1.02
		c11.86-2.27,23.6-4.73,35.62-6.27c0.24-0.03,0.25-0.4,0-0.39c-8.09,0.46-16.31,1.07-24.44,2.15c9.61-3.33,19.36-6.24,28.93-9.65
		c3.9-0.05,7.81-0.04,11.71,0.32C392.9,162,396.89,162.52,399.85,164.42z M204.32,195.72c0.52-0.36,0.69-0.94,0.63-1.53
		c1.71-4.49,2.39-9.2,2.54-14.05c0.18-5.59-0.78-12.23,4.65-15.71c2.96-1.9,6.95-2.43,10.37-2.74c3.9-0.36,7.8-0.37,11.71-0.32
		c9.57,3.42,19.32,6.33,28.93,9.65c-8.13-1.08-16.36-1.7-24.44-2.15c-0.25-0.01-0.24,0.36,0,0.39c12.02,1.54,23.76,4,35.62,6.27
		c0.73,0.33,1.46,0.68,2.19,1.02c-16.43-1.81-33.16-1.07-49.49,1.08c-0.48,0.06-0.5,0.82,0,0.77c15.3-1.38,30.31-0.86,45.41,0.59
		c-3.81,0.37-7.5,0.85-10.81,1.13c-13.19,1.11-26.13,3.01-38.64,7.52c-0.58,0.21-0.35,1.11,0.26,0.93
		c12.51-3.7,25.39-4.82,38.38-5.16c5.87-0.15,11.76-0.29,17.63-0.22c3.34,0.04,6.67,0.58,9.99,0.92
		c-10.26,1.08-20.52,3.26-30.65,4.9c-12.11,1.96-24.44,3.4-36.41,6.15c-5.66,1.3-15.95,4.72-22.86,10.09
		c1.44-2.73,3.03-5.44,4.46-8.35C203.98,196.51,204.14,196.12,204.32,195.72z M301.66,192.76c0.05,0.15,0.11,0.3,0.17,0.44
		c-0.09-0.08-0.17-0.16-0.25-0.25C301.6,192.89,301.63,192.82,301.66,192.76z M303,189.89c-1.18-5.98-0.06-12.73,0.13-18.63
		c0.05-1.53,0.1-3.06,0.15-4.59C303.87,174.45,304.45,182.2,303,189.89z M304.05,194.16c0.01-0.02,0.02-0.04,0.03-0.06
		c3.95-14.97-0.74-30.04-0.22-45.19c0.67-0.44,1.38-0.74,2.14-1c0.76,0.26,1.47,0.56,2.14,1c0.52,15.15-4.16,30.23-0.22,45.19
		c0.01,0.02,0.02,0.04,0.03,0.06c-0.64,0.16-1.28,0.3-1.95,0.32C305.33,194.46,304.7,194.32,304.05,194.16z M308.88,171.26
		c0.18,5.89,1.31,12.65,0.13,18.63c-1.46-7.69-0.88-15.44-0.27-23.22C308.78,168.2,308.83,169.73,308.88,171.26z M310.34,192.76
		c0.03,0.07,0.06,0.13,0.09,0.2c-0.08,0.09-0.17,0.17-0.25,0.25C310.23,193.05,310.29,192.91,310.34,192.76z M335.51,120.64
		c4.01-5.09,8.45-9.85,13.22-14.24c4.26-3.91,9.38-9.33,14.77-11.55c7.98-3.28,8.49,3.47,12.83,7.67c3.34,3.24,7.71,5.25,12.02,6.83
		c8.66,3.19,20.23,6.67,23.59,14.51c-4.47-2.83-11.11-3.24-15.76-3.03c-12.02,0.54-22.91,6.45-32.47,13.31
		c-16.23,11.65-32.41,24.12-44.03,40.38c-0.51,0.45-1,0.92-1.48,1.4c0.04-1.8,0.06-3.59,0.07-5.39c0-2.85,0.19-6.32,0.09-9.84
		c3.72-12.84,16.96-23.44,25.76-32.66c0.09-0.09-0.04-0.21-0.14-0.14c-7.29,5.69-13.73,12.67-19.57,19.82
		c-2.23,2.73-4.69,5.61-6.35,8.76c-0.04-0.37-0.09-0.74-0.15-1.11c3.92-9.73,12.08-18.96,18.38-26.38
		c7.42-8.74,16.04-16.09,23.96-24.31c0.04-0.04-0.01-0.11-0.06-0.08c-10.52,6.84-19.47,16.83-27.37,26.47
		c-5.28,6.44-11.55,13.7-15.45,21.59c-0.08-0.3-0.17-0.59-0.26-0.88C322.29,140.81,327.95,130.22,335.51,120.64z M312.45,170.55
		c-0.01,4.73-0.16,9.46-0.44,14.19c-0.12,0.01-0.23,0.03-0.34,0.06c0.09-3-0.1-6.04-0.18-9.06c-0.19-7.85-0.4-15.71-0.66-23.56
		c0.18,0.38,0.36,0.79,0.52,1.25C313.2,158.56,312.45,165.16,312.45,170.55z M300.64,153.44c0.17-0.46,0.34-0.87,0.52-1.25
		c-0.26,7.85-0.47,15.71-0.66,23.56c-0.07,3.02-0.27,6.06-0.18,9.06c-0.1-0.04-0.22-0.05-0.34-0.06c-0.28-4.72-0.43-9.46-0.44-14.19
		C299.55,165.16,298.8,158.56,300.64,153.44z M223.65,109.36c4.32-1.59,8.68-3.6,12.02-6.83c4.34-4.2,4.85-10.95,12.83-7.67
		c5.39,2.21,10.51,7.63,14.77,11.55c4.77,4.39,9.21,9.15,13.22,14.24c7.56,9.58,13.22,20.17,18.42,31.15
		c-0.09,0.29-0.19,0.58-0.26,0.88c-3.9-7.89-10.18-15.15-15.45-21.59c-7.9-9.64-16.85-19.63-27.37-26.47
		c-0.05-0.03-0.1,0.04-0.06,0.08c7.91,8.23,16.54,15.57,23.96,24.31c6.3,7.42,14.46,16.65,18.38,26.38
		c-0.06,0.37-0.11,0.74-0.15,1.11c-1.66-3.16-4.12-6.03-6.35-8.76c-5.84-7.15-12.28-14.13-19.57-19.82
		c-0.1-0.07-0.23,0.04-0.14,0.14c8.79,9.22,22.04,19.82,25.75,32.66c-0.1,3.52,0.09,7,0.09,9.84c0,1.79,0.03,3.59,0.07,5.39
		c-0.48-0.48-0.97-0.95-1.48-1.4c-11.62-16.26-27.8-28.73-44.03-40.38c-9.56-6.86-20.45-12.77-32.47-13.31
		c-4.66-0.21-11.29,0.2-15.76,3.03C203.42,116.03,214.99,112.55,223.65,109.36z M202.24,138.12c-3.49-5.1-1.56-11.11,4.06-12.65
		c6.15-1.68,13.01-0.91,19.03,0.85c11.14,3.26,20.6,10.52,29.5,17.69c8.85,7.14,17.77,14.64,25.78,22.93
		c-4.29-2.15-8.74-4-12.88-5.96c-12.61-5.96-25.13-12.17-37.91-17.75c-0.03-0.01-0.05,0.03-0.02,0.04
		c11.3,6.24,22.92,11.94,34.41,17.83c7.78,3.99,15.55,7.63,22.54,12.61c0.84,0.99,1.69,1.97,2.5,2.99
		c-10.28-6.61-23.07-10.17-34.42-13.25c-16.16-4.38-33.23-9.15-46.57-19.71C206.17,142.11,203.76,140.35,202.24,138.12z
		 M147.24,197.41c-17.22,3.13-34.21,7.44-50.91,12.69c8.17-15.67,19.02-29.79,31.87-41.95c1.75-1.66,0.75-4.39-1.35-5.1
		c-13.71-4.64-27.49-9.07-41.26-13.55c8.06-4.86,18.31-5.42,27.5-6.2c10.64-0.9,21.31-1.33,31.99-1.12
		c22.23,0.43,43.59,4.72,65.44,7.93c1.86,1.23,3.76,2.38,5.71,3.45c-24.54-3.77-49.57-5.15-74.35-4.59c-0.16,0-0.16,0.24,0,0.24
		c26.87,0.67,53.25,3.65,79.68,8.29c-2.16,0.11-4.26,0.37-6.23,0.85c-19.37-4.27-40.94-4.18-60.32-0.99
		c-0.19,0.03-0.14,0.34,0.04,0.33c18.97-0.86,36.91,0.3,55.51,2.38c-3.04,1.55-5.45,3.86-6.75,7.21c-1.75,4.51-0.57,9.59-0.74,14.28
		c-0.13,3.77-0.89,7.13-2.09,10.38C183.56,190.48,164.27,194.32,147.24,197.41z M257.14,205.14c-14.72,8.15-31.83,16.73-48.55,19.72
		c-5.27,0.94-6.56,0.7-9.75-3.6c-3.38-2.48-3.72-5.47-1.02-8.96c0.83-1,1.65-2,2.48-2.99c3.61-3.59,8.71-6.06,13.45-7.76
		c7.45-2.68,15.38-3.86,23.16-5.12c12.92-2.1,26.28-3.57,39.38-5.84c-1.9,0.84-3.73,1.91-5.66,3.01
		c-5.59,3.16-11.27,6.11-17.09,8.81c-7,3.25-14.17,6.13-21.46,8.66c-6.66,2.31-14.27,5.6-21.35,4.88c-0.47-0.05-0.45,0.67,0,0.73
		c11.76,1.55,26.43-5.51,37.25-9.77c5.2-2.05,10.33-4.28,15.38-6.68c2.75-1.31,5.45-2.82,8.19-4.23
		C266.58,199.22,261.78,202.57,257.14,205.14z M294.74,192.17C294.74,192.17,294.74,192.16,294.74,192.17
		C294.75,192.16,294.75,192.17,294.74,192.17C294.74,192.17,294.74,192.17,294.74,192.17z M317.25,192.17
		C317.25,192.17,317.25,192.16,317.25,192.17C317.26,192.16,317.26,192.17,317.25,192.17C317.26,192.17,317.26,192.17,317.25,192.17
		z M413.17,221.27c-3.19,4.29-4.48,4.54-9.75,3.6c-16.72-2.99-33.83-11.58-48.55-19.72c-4.64-2.57-9.45-5.92-14.41-9.17
		c2.74,1.41,5.44,2.92,8.19,4.23c5.05,2.4,10.18,4.63,15.38,6.68c10.83,4.26,25.49,11.32,37.25,9.77c0.45-0.06,0.47-0.77,0-0.73
		c-7.07,0.73-14.69-2.57-21.35-4.88c-7.29-2.53-14.46-5.41-21.46-8.66c-5.82-2.7-11.51-5.66-17.09-8.81
		c-1.93-1.09-3.76-2.17-5.66-3.01c13.09,2.27,26.46,3.75,39.38,5.84c7.79,1.26,15.71,2.44,23.16,5.12c4.73,1.7,9.84,4.17,13.45,7.76
		c0.83,1,1.65,2,2.48,2.99C416.89,215.8,416.55,218.79,413.17,221.27z M485.14,163.05c-2.09,0.71-3.1,3.44-1.35,5.1
		c12.85,12.16,23.7,26.28,31.87,41.95c-16.69-5.25-33.68-9.56-50.91-12.69c-17.03-3.1-36.32-6.93-53.76-5.48
		c-1.2-3.24-1.95-6.61-2.09-10.38c-0.17-4.69,1.01-9.77-0.74-14.28c-1.3-3.35-3.71-5.66-6.75-7.21c18.6-2.08,36.55-3.23,55.51-2.38
		c0.19,0.01,0.24-0.3,0.04-0.33c-19.38-3.18-40.95-3.28-60.32,0.99c-1.97-0.47-4.07-0.74-6.23-0.85
		c26.43-4.63,52.82-7.61,79.68-8.29c0.16,0,0.16-0.24,0-0.24c-24.78-0.57-49.81,0.82-74.35,4.59c1.95-1.06,3.85-2.22,5.71-3.45
		c21.84-3.21,43.21-7.5,65.44-7.93c10.67-0.21,21.35,0.22,31.99,1.12c9.2,0.78,19.44,1.34,27.5,6.2
		C512.63,153.98,498.85,158.41,485.14,163.05z"/>
</g>
</svg>
